<svg width="20" height="20" viewBox="0 0 20 20" fill="none" xmlns="http://www.w3.org/2000/svg">
<g id="Icon/explorer">
<path id="Vector" d="M5.23881 17.6097C4.5252 17.6098 3.81558 17.5033 3.13339 17.2939C3.02907 17.2618 2.93416 17.2048 2.85694 17.1276C2.77971 17.0505 2.72251 16.9557 2.6903 16.8514C2.25641 15.4296 2.27171 13.9085 2.73413 12.4957C3.19655 11.0829 4.08357 9.84713 5.27421 8.95692L6.37717 8.13493C7.06559 7.62169 7.67597 7.0114 8.18926 6.32305L9.02185 5.20586C9.9008 4.02306 11.1315 3.14866 12.5377 2.70787C13.944 2.26707 15.4537 2.28247 16.8506 2.75188C16.9493 2.78498 17.0389 2.84062 17.1123 2.91436C17.1857 2.98811 17.241 3.07794 17.2736 3.17674C17.7313 4.56322 17.7407 6.05861 17.3005 7.45073C16.8603 8.84285 15.9929 10.061 14.8213 10.9324L13.6667 11.7937C12.9757 12.3084 12.3632 12.9209 11.8484 13.6118L11.0296 14.7098C10.3565 15.6102 9.48249 16.3411 8.47723 16.8445C7.47196 17.348 6.3631 17.61 5.23881 17.6097ZM3.87364 16.1112C4.99191 16.3787 6.16406 16.3128 7.2453 15.9217C8.32655 15.5306 9.26955 14.8313 9.9578 13.9103L10.7765 12.8099C11.369 12.015 12.0736 11.3102 12.8685 10.7176L14.0236 9.85642C14.9235 9.18706 15.6024 8.26358 15.9727 7.20499C16.343 6.14639 16.3878 5.00119 16.1013 3.91692C15.0067 3.621 13.8484 3.66145 12.7771 4.033C11.7059 4.40456 10.7713 5.09001 10.0951 6.0001L9.26206 7.11775C8.67169 7.91002 7.96923 8.61223 7.17674 9.20236L6.07619 10.0243C5.15422 10.7126 4.45423 11.656 4.06277 12.7378C3.67131 13.8196 3.60555 14.9924 3.87364 16.1112Z" fill="url(#paint0_linear_1218_735)"/>
<path id="Vector_2" d="M14.6443 17.6264C13.5606 17.6262 12.4919 17.3726 11.5236 16.886C10.5553 16.3994 9.71418 15.6931 9.06737 14.8237L8.20607 13.6692C7.69095 12.9785 7.07849 12.3661 6.38776 11.8511L5.2896 11.0324C4.09896 10.1422 3.21193 8.90642 2.74951 7.49362C2.28709 6.08082 2.27179 4.55978 2.70568 3.13796C2.73789 3.03368 2.79509 2.93886 2.87232 2.86173C2.94954 2.7846 3.04445 2.72749 3.14878 2.69539C4.57075 2.26155 6.09195 2.27685 7.5049 2.73922C8.91785 3.20159 10.1538 4.08852 11.0441 5.27903L11.8661 6.37947C12.3792 7.06804 12.9896 7.67839 13.6782 8.19137L14.7955 9.02387C15.9787 9.90305 16.8533 11.1341 17.294 12.5407C17.7347 13.9472 17.7189 15.4572 17.2488 16.8542C17.2157 16.9529 17.1601 17.0425 17.0863 17.1159C17.0126 17.1893 16.9227 17.2445 16.8239 17.2772C16.1206 17.5087 15.3848 17.6266 14.6443 17.6264ZM3.88902 3.87622C3.62149 4.99438 3.68738 6.1664 4.07855 7.24753C4.46972 8.32866 5.16904 9.27154 6.09013 9.95973L7.18829 10.7784C7.98343 11.3708 8.68828 12.0756 9.28078 12.8706L10.1421 14.0251C10.8115 14.925 11.7351 15.6038 12.7937 15.9742C13.8524 16.3445 14.9978 16.3894 16.0822 16.103C16.3783 15.0085 16.3379 13.8502 15.9663 12.779C15.5947 11.7078 14.9091 10.7732 13.9988 10.097L12.881 9.26406C12.0888 8.6738 11.3865 7.97161 10.7962 7.17945L9.97413 6.07663C9.28574 5.15555 8.34258 4.45627 7.26114 4.06522C6.17971 3.67417 5.00739 3.60846 3.88902 3.87622Z" fill="url(#paint1_linear_1218_735)"/>
<path id="Vector_3" d="M14.1584 13.7966C13.6591 13.7967 13.1613 13.7394 12.6751 13.6258L11.5448 13.3612C10.4863 13.1153 9.38545 13.1153 8.32691 13.3612L7.1785 13.6292C5.78885 13.9534 4.33039 13.7984 3.03993 13.1894C1.74947 12.5804 0.702796 11.5531 0.0698595 10.2743C0.023906 10.1817 0 10.0798 0 9.97643C0 9.87309 0.023906 9.77115 0.0698595 9.67859C0.703315 8.41434 1.74412 7.40023 3.02446 6.79975C4.30481 6.19927 5.75008 6.04743 7.1273 6.36868L8.32643 6.64858C9.38497 6.89451 10.4858 6.89451 11.5444 6.64858L12.6784 6.38398C14.0821 6.05634 15.5548 6.20354 16.8659 6.80251C18.177 7.40148 19.2523 8.41838 19.9234 9.69392C19.9737 9.78986 20 9.89658 20 10.0049C20 10.1132 19.9737 10.22 19.9234 10.3159C19.3707 11.3661 18.5415 12.2453 17.5255 12.8587C16.5095 13.4722 15.3453 13.7965 14.1584 13.7966ZM9.9342 11.8402C10.5785 11.8399 11.2207 11.9135 11.8482 12.0594L12.9823 12.324C14.0381 12.5704 15.1447 12.4792 16.1459 12.0631C17.1472 11.647 17.9924 10.9271 18.5626 10.0049C17.9924 9.08233 17.1468 8.36214 16.1452 7.94603C15.1435 7.52991 14.0365 7.43889 12.9803 7.68585L11.8463 7.95044C10.5878 8.24278 9.27912 8.24278 8.02067 7.95044L6.82154 7.67054C5.79344 7.4276 4.71452 7.52072 3.74327 7.93624C2.77202 8.35175 1.95964 9.06776 1.42546 9.97907C1.96253 10.9015 2.78132 11.6275 3.76153 12.0502C4.74174 12.473 5.8317 12.5703 6.8713 12.3278L8.01971 12.0594C8.64741 11.9134 9.28976 11.8399 9.9342 11.8402Z" fill="url(#paint2_linear_1218_735)"/>
<path id="Vector_4" d="M9.99419 20C9.88637 19.9999 9.78017 19.9738 9.6846 19.9239C8.39392 19.249 7.35456 18.1768 6.72004 16.8659C6.08553 15.5549 5.88949 14.0747 6.1609 12.6438L6.42408 11.2563C6.59011 10.3851 6.59011 9.4903 6.42408 8.61907L6.15803 7.21576C5.89207 5.79839 6.09684 4.33296 6.74111 3.04275C7.38538 1.75253 8.43383 0.708288 9.7267 0.0691512C9.8189 0.0236634 9.92033 0 10.0231 0C10.1259 0 10.2274 0.0236634 10.3196 0.0691512C11.5999 0.706213 12.6369 1.74416 13.2727 3.02497C13.9086 4.30577 14.1084 5.75926 13.8418 7.16411L13.5662 8.61764C13.4002 9.48888 13.4002 10.3836 13.5662 11.2549L13.8294 12.6424C14.1009 14.0733 13.9049 15.5537 13.2704 16.8647C12.6359 18.1758 11.5965 19.248 10.3057 19.923C10.2096 19.9735 10.1027 19.9999 9.99419 20ZM10.0196 1.42699C9.07353 1.97258 8.32028 2.79843 7.86385 3.79047C7.40742 4.78251 7.27034 5.89178 7.47152 6.96507L7.73756 8.36837C7.93519 9.40413 7.93519 10.4679 7.73756 11.5037L7.47439 12.8912C7.268 13.9806 7.3986 15.1071 7.84879 16.1205C8.29897 17.1338 9.04736 17.986 9.99419 18.5632C10.9413 17.9863 11.69 17.1342 12.1403 16.1208C12.5906 15.1073 12.7211 13.9807 12.5145 12.8912L12.2513 11.5037C12.0537 10.4679 12.0537 9.40413 12.2513 8.36837L12.5269 6.91531C12.7253 5.85366 12.5909 4.75667 12.1421 3.7743C11.6933 2.79193 10.952 1.97214 10.0196 1.42699Z" fill="url(#paint3_linear_1218_735)"/>
</g>
<defs>
<linearGradient id="paint0_linear_1218_735" x1="12.9816" y1="30.6733" x2="1.02051" y2="5.99259" gradientUnits="userSpaceOnUse">
<stop offset="0.5625" stop-color="#25BDCE"/>
<stop offset="1" stop-color="#9BE9E9"/>
</linearGradient>
<linearGradient id="paint1_linear_1218_735" x1="12.9789" y1="30.7106" x2="0.974572" y2="6.0219" gradientUnits="userSpaceOnUse">
<stop offset="0.5625" stop-color="#25BDCE"/>
<stop offset="1" stop-color="#9BE9E9"/>
</linearGradient>
<linearGradient id="paint2_linear_1218_735" x1="13.911" y1="20.3128" x2="11.2013" y2="5.60996" gradientUnits="userSpaceOnUse">
<stop offset="0.5625" stop-color="#25BDCE"/>
<stop offset="1" stop-color="#9BE9E9"/>
</linearGradient>
<linearGradient id="paint3_linear_1218_735" x1="11.5472" y1="37.1646" x2="-8.06438" y2="21.1781" gradientUnits="userSpaceOnUse">
<stop offset="0.5625" stop-color="#25BDCE"/>
<stop offset="1" stop-color="#9BE9E9"/>
</linearGradient>
</defs>
</svg>
