<svg width="564" height="219" viewBox="0 0 564 219" fill="none" xmlns="http://www.w3.org/2000/svg">
<rect width="542" height="189" rx="32" fill="#78D0BC"/>
<path d="M39.008 127V59.8H61.76C67.072 59.8 71.424 60.696 74.816 62.488C78.208 64.28 80.704 66.68 82.304 69.688C83.968 72.632 84.8 75.992 84.8 79.768C84.8 83.352 83.968 86.68 82.304 89.752C80.704 92.76 78.176 95.192 74.72 97.048C71.264 98.84 66.848 99.736 61.472 99.736H48.608V127H39.008ZM74.336 127L59.84 97.144H70.4L85.472 127H74.336ZM48.608 92.44H61.088C65.824 92.44 69.312 91.288 71.552 88.984C73.792 86.616 74.912 83.608 74.912 79.96C74.912 76.248 73.824 73.304 71.648 71.128C69.472 68.952 65.952 67.864 61.088 67.864H48.608V92.44ZM106.129 128.152C101.521 128.152 97.4245 127.096 93.8405 124.984C90.2565 122.872 87.4405 119.928 85.3925 116.152C83.4085 112.376 82.4165 107.992 82.4165 103C82.4165 97.88 83.4085 93.432 85.3925 89.656C87.4405 85.816 90.2565 82.84 93.8405 80.728C97.4245 78.552 101.585 77.464 106.321 77.464C111.057 77.464 115.121 78.52 118.513 80.632C121.905 82.744 124.529 85.56 126.385 89.08C128.241 92.536 129.169 96.376 129.169 100.6C129.169 101.24 129.137 101.944 129.073 102.712C129.073 103.416 129.041 104.216 128.977 105.112H89.4245V98.296H119.569C119.377 94.264 118.033 91.128 115.537 88.888C113.041 86.584 109.937 85.432 106.225 85.432C103.601 85.432 101.201 86.04 99.0245 87.256C96.8485 88.408 95.0885 90.136 93.7445 92.44C92.4645 94.68 91.8245 97.528 91.8245 100.984V103.672C91.8245 107.256 92.4645 110.296 93.7445 112.792C95.0885 115.224 96.8485 117.08 99.0245 118.36C101.201 119.576 103.569 120.184 106.129 120.184C109.201 120.184 111.729 119.512 113.713 118.168C115.697 116.824 117.169 115 118.129 112.696H127.729C126.897 115.64 125.489 118.296 123.505 120.664C121.521 122.968 119.057 124.792 116.113 126.136C113.233 127.48 109.905 128.152 106.129 128.152ZM148.794 127C145.786 127 143.162 126.52 140.922 125.56C138.682 124.6 136.954 123 135.738 120.76C134.522 118.52 133.914 115.48 133.914 111.64V86.776H125.562V78.616H133.914L135.066 66.52H143.514V78.616H157.242V86.776H143.514V111.736C143.514 114.488 144.09 116.376 145.242 117.4C146.394 118.36 148.378 118.84 151.194 118.84H156.762V127H148.794ZM158.228 127V78.616H166.868L167.732 87.736C168.82 85.56 170.228 83.736 171.956 82.264C173.684 80.728 175.7 79.544 178.004 78.712C180.372 77.88 183.06 77.464 186.068 77.464V87.64H182.612C180.628 87.64 178.74 87.896 176.948 88.408C175.156 88.856 173.556 89.656 172.148 90.808C170.804 91.96 169.748 93.528 168.98 95.512C168.212 97.496 167.828 99.96 167.828 102.904V127H158.228ZM205.864 128.152C201.32 128.152 197.224 127.096 193.576 124.984C189.992 122.872 187.144 119.928 185.032 116.152C182.984 112.312 181.96 107.896 181.96 102.904C181.96 97.784 183.016 93.336 185.128 89.56C187.24 85.72 190.12 82.744 193.768 80.632C197.416 78.52 201.512 77.464 206.056 77.464C210.664 77.464 214.76 78.52 218.344 80.632C221.928 82.744 224.744 85.688 226.792 89.464C228.904 93.24 229.96 97.688 229.96 102.808C229.96 107.928 228.904 112.376 226.792 116.152C224.744 119.928 221.896 122.872 218.248 124.984C214.6 127.096 210.472 128.152 205.864 128.152ZM205.864 119.896C208.488 119.896 210.856 119.256 212.968 117.976C215.144 116.696 216.872 114.808 218.152 112.312C219.496 109.752 220.168 106.584 220.168 102.808C220.168 99.032 219.528 95.896 218.248 93.4C216.968 90.84 215.24 88.92 213.064 87.64C210.952 86.36 208.616 85.72 206.056 85.72C203.496 85.72 201.128 86.36 198.952 87.64C196.776 88.92 195.016 90.84 193.672 93.4C192.392 95.896 191.752 99.032 191.752 102.808C191.752 106.584 192.392 109.752 193.672 112.312C195.016 114.808 196.744 116.696 198.856 117.976C201.032 119.256 203.368 119.896 205.864 119.896ZM234.245 127V72.088C234.245 68.76 234.789 66.04 235.877 63.928C237.029 61.816 238.693 60.28 240.869 59.32C243.045 58.36 245.669 57.88 248.741 57.88H254.405V66.04H250.277C247.973 66.04 246.309 66.52 245.285 67.48C244.325 68.376 243.845 69.976 243.845 72.28V127H234.245ZM227.141 86.776V78.616H255.461V86.776H227.141ZM273.375 128.152C269.599 128.152 266.303 127.384 263.487 125.848C260.735 124.312 258.591 122.008 257.055 118.936C255.583 115.864 254.847 111.992 254.847 107.32V78.616H264.447V106.264C264.447 110.808 265.439 114.232 267.423 116.536C269.407 118.84 272.255 119.992 275.967 119.992C278.463 119.992 280.703 119.384 282.687 118.168C284.735 116.952 286.335 115.192 287.487 112.888C288.639 110.584 289.215 107.768 289.215 104.44V78.616H298.815V127H290.271L289.599 118.744C288.127 121.688 285.983 123.992 283.167 125.656C280.351 127.32 277.087 128.152 273.375 128.152ZM302.359 127V78.616H310.999L311.575 86.872C313.111 83.992 315.287 81.72 318.103 80.056C320.919 78.328 324.151 77.464 327.799 77.464C331.639 77.464 334.935 78.232 337.687 79.768C340.439 81.304 342.583 83.64 344.119 86.776C345.655 89.848 346.423 93.72 346.423 98.392V127H336.823V99.352C336.823 94.872 335.831 91.48 333.847 89.176C331.863 86.872 328.983 85.72 325.207 85.72C322.711 85.72 320.471 86.328 318.487 87.544C316.503 88.696 314.903 90.424 313.687 92.728C312.535 95.032 311.959 97.848 311.959 101.176V127H302.359ZM370.607 128.152C365.999 128.152 361.935 127.064 358.415 124.888C354.895 122.648 352.143 119.64 350.159 115.864C348.239 112.024 347.279 107.672 347.279 102.808C347.279 97.88 348.239 93.528 350.159 89.752C352.143 85.976 354.895 83 358.415 80.824C361.999 78.584 366.095 77.464 370.703 77.464C374.479 77.464 377.807 78.232 380.687 79.768C383.567 81.24 385.807 83.352 387.407 86.104V57.88H397.007V127H388.463L387.407 119.512C386.447 120.984 385.199 122.392 383.663 123.736C382.127 125.016 380.271 126.072 378.095 126.904C375.919 127.736 373.423 128.152 370.607 128.152ZM372.143 119.8C375.151 119.8 377.807 119.096 380.111 117.688C382.415 116.28 384.175 114.296 385.391 111.736C386.671 109.176 387.311 106.2 387.311 102.808C387.311 99.416 386.671 96.472 385.391 93.976C384.175 91.416 382.415 89.432 380.111 88.024C377.807 86.552 375.151 85.816 372.143 85.816C369.263 85.816 366.671 86.552 364.367 88.024C362.063 89.432 360.271 91.416 358.991 93.976C357.711 96.472 357.071 99.416 357.071 102.808C357.071 106.2 357.711 109.176 358.991 111.736C360.271 114.296 362.063 116.28 364.367 117.688C366.671 119.096 369.263 119.8 372.143 119.8ZM401.206 127V78.616H410.806V127H401.206ZM406.102 69.496C404.246 69.496 402.71 68.92 401.494 67.768C400.342 66.616 399.766 65.144 399.766 63.352C399.766 61.624 400.342 60.216 401.494 59.128C402.71 57.976 404.246 57.4 406.102 57.4C407.894 57.4 409.398 57.976 410.614 59.128C411.83 60.216 412.438 61.624 412.438 63.352C412.438 65.144 411.83 66.616 410.614 67.768C409.398 68.92 407.894 69.496 406.102 69.496ZM414.934 127V78.616H423.574L424.15 86.872C425.686 83.992 427.862 81.72 430.678 80.056C433.494 78.328 436.726 77.464 440.374 77.464C444.214 77.464 447.51 78.232 450.262 79.768C453.014 81.304 455.158 83.64 456.694 86.776C458.23 89.848 458.998 93.72 458.998 98.392V127H449.398V99.352C449.398 94.872 448.406 91.48 446.422 89.176C444.438 86.872 441.558 85.72 437.782 85.72C435.286 85.72 433.046 86.328 431.062 87.544C429.078 88.696 427.478 90.424 426.262 92.728C425.11 95.032 424.534 97.848 424.534 101.176V127H414.934ZM481.358 149.272C476.942 149.272 473.038 148.696 469.646 147.544C466.254 146.456 463.63 144.76 461.774 142.456C459.918 140.152 458.99 137.336 458.99 134.008C458.99 132.28 459.374 130.52 460.142 128.728C460.91 127 462.158 125.336 463.886 123.736C465.614 122.136 467.95 120.696 470.894 119.416L476.27 123.736C473.006 124.952 470.798 126.392 469.646 128.056C468.558 129.784 468.014 131.448 468.014 133.048C468.014 134.968 468.59 136.568 469.742 137.848C470.894 139.128 472.462 140.088 474.446 140.728C476.494 141.368 478.798 141.688 481.358 141.688C483.854 141.688 486.03 141.336 487.886 140.632C489.742 139.928 491.182 138.936 492.206 137.656C493.23 136.376 493.742 134.872 493.742 133.144C493.742 131.096 492.974 129.368 491.438 127.96C489.902 126.616 486.958 125.816 482.606 125.56C478.958 125.304 475.854 124.952 473.294 124.504C470.798 124.056 468.654 123.512 466.862 122.872C465.134 122.232 463.662 121.528 462.446 120.76C461.294 119.992 460.302 119.192 459.47 118.36V116.152L469.07 106.264L476.846 108.952L466.382 118.648L468.398 114.328C469.102 114.776 469.774 115.224 470.414 115.672C471.054 116.056 471.918 116.408 473.006 116.728C474.094 117.048 475.566 117.336 477.422 117.592C479.278 117.848 481.71 118.104 484.718 118.36C489.07 118.68 492.558 119.448 495.182 120.664C497.87 121.88 499.822 123.512 501.038 125.56C502.254 127.608 502.862 130.04 502.862 132.856C502.862 135.608 502.094 138.232 500.558 140.728C499.086 143.224 496.75 145.272 493.55 146.872C490.414 148.472 486.35 149.272 481.358 149.272ZM481.358 112.12C477.262 112.12 473.774 111.352 470.894 109.816C468.078 108.28 465.902 106.2 464.366 103.576C462.894 100.952 462.158 98.04 462.158 94.84C462.158 91.576 462.894 88.664 464.366 86.104C465.902 83.48 468.11 81.4 470.99 79.864C473.87 78.264 477.326 77.464 481.358 77.464C485.39 77.464 488.814 78.264 491.63 79.864C494.51 81.4 496.686 83.48 498.158 86.104C499.694 88.664 500.462 91.576 500.462 94.84C500.462 98.04 499.694 100.952 498.158 103.576C496.686 106.2 494.51 108.28 491.63 109.816C488.814 111.352 485.39 112.12 481.358 112.12ZM481.358 104.44C484.494 104.44 486.99 103.64 488.846 102.04C490.702 100.376 491.63 97.976 491.63 94.84C491.63 91.704 490.702 89.336 488.846 87.736C486.99 86.072 484.494 85.24 481.358 85.24C478.222 85.24 475.694 86.072 473.774 87.736C471.854 89.336 470.894 91.704 470.894 94.84C470.894 97.976 471.854 100.376 473.774 102.04C475.694 103.64 478.222 104.44 481.358 104.44ZM489.23 86.2L486.926 78.616H506.798V85.24L489.23 86.2Z" fill="black"/>
<rect x="414" y="166" width="150" height="53" rx="16" fill="#D5F2EA"/>
<path d="M431.088 201.52V189.936H432.528L432.688 191.184C432.859 190.939 433.072 190.709 433.328 190.496C433.584 190.272 433.888 190.091 434.24 189.952C434.603 189.813 435.024 189.744 435.504 189.744C436.272 189.744 436.944 189.931 437.52 190.304C438.107 190.677 438.56 191.184 438.88 191.824C439.211 192.453 439.376 193.173 439.376 193.984C439.376 194.795 439.211 195.52 438.88 196.16C438.549 196.789 438.091 197.285 437.504 197.648C436.928 198.011 436.256 198.192 435.488 198.192C434.859 198.192 434.304 198.069 433.824 197.824C433.344 197.568 432.965 197.216 432.688 196.768V201.52H431.088ZM435.232 196.8C435.723 196.8 436.155 196.683 436.528 196.448C436.912 196.213 437.211 195.883 437.424 195.456C437.648 195.029 437.76 194.533 437.76 193.968C437.76 193.403 437.648 192.912 437.424 192.496C437.211 192.069 436.912 191.739 436.528 191.504C436.155 191.259 435.723 191.136 435.232 191.136C434.731 191.136 434.288 191.259 433.904 191.504C433.531 191.739 433.237 192.069 433.024 192.496C432.811 192.912 432.704 193.403 432.704 193.968C432.704 194.533 432.811 195.029 433.024 195.456C433.237 195.883 433.531 196.213 433.904 196.448C434.288 196.683 434.731 196.8 435.232 196.8ZM443.324 198.192C442.567 198.192 441.884 198.016 441.276 197.664C440.679 197.312 440.204 196.821 439.852 196.192C439.511 195.552 439.34 194.816 439.34 193.984C439.34 193.131 439.516 192.389 439.868 191.76C440.22 191.12 440.7 190.624 441.308 190.272C441.916 189.92 442.599 189.744 443.356 189.744C444.124 189.744 444.807 189.92 445.404 190.272C446.002 190.624 446.471 191.115 446.812 191.744C447.164 192.373 447.34 193.115 447.34 193.968C447.34 194.821 447.164 195.563 446.812 196.192C446.471 196.821 445.996 197.312 445.388 197.664C444.78 198.016 444.092 198.192 443.324 198.192ZM443.324 196.816C443.762 196.816 444.156 196.709 444.508 196.496C444.871 196.283 445.159 195.968 445.372 195.552C445.596 195.125 445.708 194.597 445.708 193.968C445.708 193.339 445.602 192.816 445.388 192.4C445.175 191.973 444.887 191.653 444.524 191.44C444.172 191.227 443.783 191.12 443.356 191.12C442.93 191.12 442.535 191.227 442.172 191.44C441.81 191.653 441.516 191.973 441.292 192.4C441.079 192.816 440.972 193.339 440.972 193.968C440.972 194.597 441.079 195.125 441.292 195.552C441.516 195.968 441.804 196.283 442.156 196.496C442.519 196.709 442.908 196.816 443.324 196.816ZM448.973 198L446.605 189.936H448.189L449.949 196.656L449.645 196.64L451.597 189.936H453.389L455.341 196.64L455.037 196.656L456.781 189.936H458.397L456.029 198H454.381L452.333 191.008H452.653L450.605 198H448.973ZM461.608 198.192C460.84 198.192 460.157 198.016 459.56 197.664C458.963 197.312 458.493 196.821 458.152 196.192C457.821 195.563 457.656 194.832 457.656 194C457.656 193.147 457.821 192.405 458.152 191.776C458.493 191.136 458.963 190.64 459.56 190.288C460.157 189.925 460.851 189.744 461.64 189.744C462.429 189.744 463.107 189.92 463.672 190.272C464.237 190.624 464.675 191.093 464.984 191.68C465.293 192.256 465.448 192.896 465.448 193.6C465.448 193.707 465.443 193.824 465.432 193.952C465.432 194.069 465.427 194.203 465.416 194.352H458.824V193.216H463.848C463.816 192.544 463.592 192.021 463.176 191.648C462.76 191.264 462.243 191.072 461.624 191.072C461.187 191.072 460.787 191.173 460.424 191.376C460.061 191.568 459.768 191.856 459.544 192.24C459.331 192.613 459.224 193.088 459.224 193.664V194.112C459.224 194.709 459.331 195.216 459.544 195.632C459.768 196.037 460.061 196.347 460.424 196.56C460.787 196.763 461.181 196.864 461.608 196.864C462.12 196.864 462.541 196.752 462.872 196.528C463.203 196.304 463.448 196 463.608 195.616H465.208C465.069 196.107 464.835 196.549 464.504 196.944C464.173 197.328 463.763 197.632 463.272 197.856C462.792 198.08 462.237 198.192 461.608 198.192ZM465.625 198V189.936H467.065L467.209 191.456C467.391 191.093 467.625 190.789 467.913 190.544C468.201 190.288 468.537 190.091 468.921 189.952C469.316 189.813 469.764 189.744 470.265 189.744V191.44H469.689C469.359 191.44 469.044 191.483 468.745 191.568C468.447 191.643 468.18 191.776 467.945 191.968C467.721 192.16 467.545 192.421 467.417 192.752C467.289 193.083 467.225 193.493 467.225 193.984V198H465.625ZM473.533 198.192C472.765 198.192 472.082 198.016 471.485 197.664C470.888 197.312 470.418 196.821 470.077 196.192C469.746 195.563 469.581 194.832 469.581 194C469.581 193.147 469.746 192.405 470.077 191.776C470.418 191.136 470.888 190.64 471.485 190.288C472.082 189.925 472.776 189.744 473.565 189.744C474.354 189.744 475.032 189.92 475.597 190.272C476.162 190.624 476.6 191.093 476.909 191.68C477.218 192.256 477.373 192.896 477.373 193.6C477.373 193.707 477.368 193.824 477.357 193.952C477.357 194.069 477.352 194.203 477.341 194.352H470.749V193.216H475.773C475.741 192.544 475.517 192.021 475.101 191.648C474.685 191.264 474.168 191.072 473.549 191.072C473.112 191.072 472.712 191.173 472.349 191.376C471.986 191.568 471.693 191.856 471.469 192.24C471.256 192.613 471.149 193.088 471.149 193.664V194.112C471.149 194.709 471.256 195.216 471.469 195.632C471.693 196.037 471.986 196.347 472.349 196.56C472.712 196.763 473.106 196.864 473.533 196.864C474.045 196.864 474.466 196.752 474.797 196.528C475.128 196.304 475.373 196 475.533 195.616H477.133C476.994 196.107 476.76 196.549 476.429 196.944C476.098 197.328 475.688 197.632 475.197 197.856C474.717 198.08 474.162 198.192 473.533 198.192ZM481.135 198.192C480.367 198.192 479.689 198.011 479.103 197.648C478.516 197.275 478.057 196.773 477.727 196.144C477.407 195.504 477.247 194.779 477.247 193.968C477.247 193.147 477.407 192.421 477.727 191.792C478.057 191.163 478.516 190.667 479.103 190.304C479.7 189.931 480.383 189.744 481.151 189.744C481.78 189.744 482.335 189.872 482.815 190.128C483.295 190.373 483.668 190.725 483.935 191.184V186.48H485.535V198H484.111L483.935 196.752C483.775 196.997 483.567 197.232 483.311 197.456C483.055 197.669 482.745 197.845 482.383 197.984C482.02 198.123 481.604 198.192 481.135 198.192ZM481.391 196.8C481.892 196.8 482.335 196.683 482.719 196.448C483.103 196.213 483.396 195.883 483.599 195.456C483.812 195.029 483.919 194.533 483.919 193.968C483.919 193.403 483.812 192.912 483.599 192.496C483.396 192.069 483.103 191.739 482.719 191.504C482.335 191.259 481.892 191.136 481.391 191.136C480.911 191.136 480.479 191.259 480.095 191.504C479.711 191.739 479.412 192.069 479.199 192.496C478.985 192.912 478.879 193.403 478.879 193.968C478.879 194.533 478.985 195.029 479.199 195.456C479.412 195.883 479.711 196.213 480.095 196.448C480.479 196.683 480.911 196.8 481.391 196.8ZM493.016 198.192C492.579 198.192 492.179 198.128 491.816 198C491.464 197.883 491.155 197.717 490.888 197.504C490.621 197.291 490.397 197.045 490.216 196.768L490.056 198H488.616V186.48H490.216V191.2C490.472 190.795 490.829 190.453 491.288 190.176C491.757 189.888 492.333 189.744 493.016 189.744C493.784 189.744 494.461 189.931 495.048 190.304C495.635 190.667 496.088 191.168 496.408 191.808C496.739 192.437 496.904 193.163 496.904 193.984C496.904 194.784 496.739 195.504 496.408 196.144C496.088 196.784 495.635 197.285 495.048 197.648C494.461 198.011 493.784 198.192 493.016 198.192ZM492.76 196.8C493.251 196.8 493.683 196.683 494.056 196.448C494.44 196.213 494.739 195.883 494.952 195.456C495.176 195.029 495.288 194.533 495.288 193.968C495.288 193.403 495.176 192.912 494.952 192.496C494.739 192.069 494.44 191.739 494.056 191.504C493.683 191.259 493.251 191.136 492.76 191.136C492.259 191.136 491.816 191.259 491.432 191.504C491.059 191.739 490.765 192.069 490.552 192.496C490.339 192.912 490.232 193.403 490.232 193.968C490.232 194.533 490.339 195.029 490.552 195.456C490.765 195.883 491.059 196.213 491.432 196.448C491.816 196.683 492.259 196.8 492.76 196.8ZM497.428 201.52L499.396 197.104H498.932L495.748 189.936H497.476L500.004 195.792L502.548 189.936H504.228L499.108 201.52H497.428ZM509.815 201.712C509.079 201.712 508.428 201.616 507.863 201.424C507.298 201.243 506.86 200.96 506.551 200.576C506.242 200.192 506.087 199.723 506.087 199.168C506.087 198.88 506.151 198.587 506.279 198.288C506.407 198 506.615 197.723 506.903 197.456C507.191 197.189 507.58 196.949 508.071 196.736L508.967 197.456C508.423 197.659 508.055 197.899 507.863 198.176C507.682 198.464 507.591 198.741 507.591 199.008C507.591 199.328 507.687 199.595 507.879 199.808C508.071 200.021 508.332 200.181 508.663 200.288C509.004 200.395 509.388 200.448 509.815 200.448C510.231 200.448 510.594 200.389 510.903 200.272C511.212 200.155 511.452 199.989 511.623 199.776C511.794 199.563 511.879 199.312 511.879 199.024C511.879 198.683 511.751 198.395 511.495 198.16C511.239 197.936 510.748 197.803 510.023 197.76C509.415 197.717 508.898 197.659 508.471 197.584C508.055 197.509 507.698 197.419 507.399 197.312C507.111 197.205 506.866 197.088 506.663 196.96C506.471 196.832 506.306 196.699 506.167 196.56V196.192L507.767 194.544L509.063 194.992L507.319 196.608L507.655 195.888C507.772 195.963 507.884 196.037 507.991 196.112C508.098 196.176 508.242 196.235 508.423 196.288C508.604 196.341 508.85 196.389 509.159 196.432C509.468 196.475 509.874 196.517 510.375 196.56C511.1 196.613 511.682 196.741 512.119 196.944C512.567 197.147 512.892 197.419 513.095 197.76C513.298 198.101 513.399 198.507 513.399 198.976C513.399 199.435 513.271 199.872 513.015 200.288C512.77 200.704 512.38 201.045 511.847 201.312C511.324 201.579 510.647 201.712 509.815 201.712ZM509.815 195.52C509.132 195.52 508.551 195.392 508.071 195.136C507.602 194.88 507.239 194.533 506.983 194.096C506.738 193.659 506.615 193.173 506.615 192.64C506.615 192.096 506.738 191.611 506.983 191.184C507.239 190.747 507.607 190.4 508.087 190.144C508.567 189.877 509.143 189.744 509.815 189.744C510.487 189.744 511.058 189.877 511.527 190.144C512.007 190.4 512.37 190.747 512.615 191.184C512.871 191.611 512.999 192.096 512.999 192.64C512.999 193.173 512.871 193.659 512.615 194.096C512.37 194.533 512.007 194.88 511.527 195.136C511.058 195.392 510.487 195.52 509.815 195.52ZM509.815 194.24C510.338 194.24 510.754 194.107 511.063 193.84C511.372 193.563 511.527 193.163 511.527 192.64C511.527 192.117 511.372 191.723 511.063 191.456C510.754 191.179 510.338 191.04 509.815 191.04C509.292 191.04 508.871 191.179 508.551 191.456C508.231 191.723 508.071 192.117 508.071 192.64C508.071 193.163 508.231 193.563 508.551 193.84C508.871 194.107 509.292 194.24 509.815 194.24ZM511.127 191.2L510.743 189.936H514.055V191.04L511.127 191.2ZM514.172 198V189.936H515.772V198H514.172ZM514.988 188.416C514.679 188.416 514.423 188.32 514.22 188.128C514.028 187.936 513.932 187.691 513.932 187.392C513.932 187.104 514.028 186.869 514.22 186.688C514.423 186.496 514.679 186.4 514.988 186.4C515.287 186.4 515.537 186.496 515.74 186.688C515.943 186.869 516.044 187.104 516.044 187.392C516.044 187.691 515.943 187.936 515.74 188.128C515.537 188.32 515.287 188.416 514.988 188.416ZM519.772 198C519.271 198 518.833 197.92 518.46 197.76C518.087 197.6 517.799 197.333 517.596 196.96C517.393 196.587 517.292 196.08 517.292 195.44V191.296H515.9V189.936H517.292L517.484 187.92H518.892V189.936H521.18V191.296H518.892V195.456C518.892 195.915 518.988 196.229 519.18 196.4C519.372 196.56 519.703 196.64 520.172 196.64H521.1V198H519.772ZM524.853 198.192C524.075 198.192 523.381 198.016 522.773 197.664C522.165 197.301 521.685 196.805 521.333 196.176C520.992 195.547 520.821 194.816 520.821 193.984C520.821 193.141 520.992 192.405 521.333 191.776C521.685 191.136 522.165 190.64 522.773 190.288C523.381 189.925 524.075 189.744 524.853 189.744C525.835 189.744 526.656 190 527.317 190.512C527.979 191.024 528.4 191.717 528.581 192.592H526.917C526.811 192.123 526.565 191.76 526.181 191.504C525.808 191.248 525.36 191.12 524.837 191.12C524.411 191.12 524.016 191.232 523.653 191.456C523.291 191.669 522.997 191.989 522.773 192.416C522.56 192.832 522.453 193.349 522.453 193.968C522.453 194.427 522.517 194.837 522.645 195.2C522.773 195.552 522.944 195.851 523.157 196.096C523.381 196.341 523.637 196.528 523.925 196.656C524.213 196.773 524.517 196.832 524.837 196.832C525.189 196.832 525.504 196.779 525.781 196.672C526.069 196.555 526.309 196.384 526.501 196.16C526.704 195.936 526.843 195.669 526.917 195.36H528.581C528.4 196.213 527.979 196.901 527.317 197.424C526.656 197.936 525.835 198.192 524.853 198.192ZM532.534 198.192C531.776 198.192 531.094 198.016 530.486 197.664C529.888 197.312 529.414 196.821 529.062 196.192C528.72 195.552 528.55 194.816 528.55 193.984C528.55 193.131 528.726 192.389 529.078 191.76C529.43 191.12 529.91 190.624 530.518 190.272C531.126 189.92 531.808 189.744 532.566 189.744C533.334 189.744 534.016 189.92 534.614 190.272C535.211 190.624 535.68 191.115 536.022 191.744C536.374 192.373 536.55 193.115 536.55 193.968C536.55 194.821 536.374 195.563 536.022 196.192C535.68 196.821 535.206 197.312 534.598 197.664C533.99 198.016 533.302 198.192 532.534 198.192ZM532.534 196.816C532.971 196.816 533.366 196.709 533.718 196.496C534.08 196.283 534.368 195.968 534.582 195.552C534.806 195.125 534.918 194.597 534.918 193.968C534.918 193.339 534.811 192.816 534.598 192.4C534.384 191.973 534.096 191.653 533.734 191.44C533.382 191.227 532.992 191.12 532.566 191.12C532.139 191.12 531.744 191.227 531.382 191.44C531.019 191.653 530.726 191.973 530.502 192.4C530.288 192.816 530.182 193.339 530.182 193.968C530.182 194.597 530.288 195.125 530.502 195.552C530.726 195.968 531.014 196.283 531.366 196.496C531.728 196.709 532.118 196.816 532.534 196.816ZM536.944 198V189.936H538.544V198H536.944ZM537.76 188.416C537.45 188.416 537.194 188.32 536.992 188.128C536.8 187.936 536.704 187.691 536.704 187.392C536.704 187.104 536.8 186.869 536.992 186.688C537.194 186.496 537.45 186.4 537.76 186.4C538.058 186.4 538.309 186.496 538.512 186.688C538.714 186.869 538.816 187.104 538.816 187.392C538.816 187.691 538.714 187.936 538.512 188.128C538.309 188.32 538.058 188.416 537.76 188.416ZM539.232 198V189.936H540.672L540.768 191.312C541.024 190.832 541.386 190.453 541.856 190.176C542.325 189.888 542.864 189.744 543.472 189.744C544.112 189.744 544.661 189.872 545.12 190.128C545.578 190.384 545.936 190.773 546.192 191.296C546.448 191.808 546.576 192.453 546.576 193.232V198H544.976V193.392C544.976 192.645 544.81 192.08 544.48 191.696C544.149 191.312 543.669 191.12 543.04 191.12C542.624 191.12 542.25 191.221 541.92 191.424C541.589 191.616 541.322 191.904 541.12 192.288C540.928 192.672 540.832 193.141 540.832 193.696V198H539.232Z" fill="black"/>
</svg>
