<svg width="280" height="219" viewBox="0 0 280 219" fill="none" xmlns="http://www.w3.org/2000/svg">
<rect x="0.5" width="260" height="189" rx="32" fill="#BFBAF8"/>
<path d="M59.38 127L34.42 59.8H44.788L65.14 117.016L85.684 59.8H95.86L70.9 127H59.38ZM110.664 128.152C106.12 128.152 102.024 127.096 98.3763 124.984C94.7923 122.872 91.9443 119.928 89.8323 116.152C87.7843 112.312 86.7603 107.896 86.7603 102.904C86.7603 97.784 87.8163 93.336 89.9283 89.56C92.0403 85.72 94.9203 82.744 98.5683 80.632C102.216 78.52 106.312 77.464 110.856 77.464C115.464 77.464 119.56 78.52 123.144 80.632C126.728 82.744 129.544 85.688 131.592 89.464C133.704 93.24 134.76 97.688 134.76 102.808C134.76 107.928 133.704 112.376 131.592 116.152C129.544 119.928 126.696 122.872 123.048 124.984C119.4 127.096 115.272 128.152 110.664 128.152ZM110.664 119.896C113.288 119.896 115.656 119.256 117.768 117.976C119.944 116.696 121.672 114.808 122.952 112.312C124.296 109.752 124.968 106.584 124.968 102.808C124.968 99.032 124.328 95.896 123.048 93.4C121.768 90.84 120.04 88.92 117.864 87.64C115.752 86.36 113.416 85.72 110.856 85.72C108.296 85.72 105.928 86.36 103.752 87.64C101.576 88.92 99.8163 90.84 98.4723 93.4C97.1923 95.896 96.5523 99.032 96.5523 102.808C96.5523 106.584 97.1923 109.752 98.4723 112.312C99.8163 114.808 101.544 116.696 103.656 117.976C105.832 119.256 108.168 119.896 110.664 119.896ZM154.45 127C151.442 127 148.818 126.52 146.578 125.56C144.338 124.6 142.61 123 141.394 120.76C140.178 118.52 139.57 115.48 139.57 111.64V86.776H131.218V78.616H139.57L140.722 66.52H149.17V78.616H162.898V86.776H149.17V111.736C149.17 114.488 149.746 116.376 150.898 117.4C152.05 118.36 154.034 118.84 156.85 118.84H162.418V127H154.45ZM184.46 128.152C179.852 128.152 175.756 127.096 172.172 124.984C168.588 122.872 165.772 119.928 163.724 116.152C161.74 112.376 160.748 107.992 160.748 103C160.748 97.88 161.74 93.432 163.724 89.656C165.772 85.816 168.588 82.84 172.172 80.728C175.756 78.552 179.916 77.464 184.652 77.464C189.388 77.464 193.452 78.52 196.844 80.632C200.236 82.744 202.86 85.56 204.716 89.08C206.572 92.536 207.5 96.376 207.5 100.6C207.5 101.24 207.468 101.944 207.404 102.712C207.404 103.416 207.372 104.216 207.308 105.112H167.756V98.296H197.9C197.708 94.264 196.364 91.128 193.868 88.888C191.372 86.584 188.268 85.432 184.556 85.432C181.932 85.432 179.532 86.04 177.356 87.256C175.18 88.408 173.42 90.136 172.076 92.44C170.796 94.68 170.156 97.528 170.156 100.984V103.672C170.156 107.256 170.796 110.296 172.076 112.792C173.42 115.224 175.18 117.08 177.356 118.36C179.532 119.576 181.9 120.184 184.46 120.184C187.532 120.184 190.06 119.512 192.044 118.168C194.028 116.824 195.5 115 196.46 112.696H206.06C205.228 115.64 203.82 118.296 201.836 120.664C199.852 122.968 197.388 124.792 194.444 126.136C191.564 127.48 188.236 128.152 184.46 128.152ZM210.87 107.032L209.718 59.8H220.086L219.03 107.032H210.87ZM214.998 127.48C213.142 127.48 211.606 126.904 210.39 125.752C209.238 124.536 208.662 123.096 208.662 121.432C208.662 119.704 209.238 118.264 210.39 117.112C211.606 115.896 213.142 115.288 214.998 115.288C216.79 115.288 218.262 115.896 219.414 117.112C220.63 118.264 221.238 119.704 221.238 121.432C221.238 123.096 220.63 124.536 219.414 125.752C218.262 126.904 216.79 127.48 214.998 127.48Z" fill="black"/>
<rect x="129.5" y="166" width="150" height="53" rx="16" fill="#EBEAFD"/>
<path d="M146.588 201.52V189.936H148.028L148.188 191.184C148.359 190.939 148.572 190.709 148.828 190.496C149.084 190.272 149.388 190.091 149.74 189.952C150.103 189.813 150.524 189.744 151.004 189.744C151.772 189.744 152.444 189.931 153.02 190.304C153.607 190.677 154.06 191.184 154.38 191.824C154.711 192.453 154.876 193.173 154.876 193.984C154.876 194.795 154.711 195.52 154.38 196.16C154.049 196.789 153.591 197.285 153.004 197.648C152.428 198.011 151.756 198.192 150.988 198.192C150.359 198.192 149.804 198.069 149.324 197.824C148.844 197.568 148.465 197.216 148.188 196.768V201.52H146.588ZM150.732 196.8C151.223 196.8 151.655 196.683 152.028 196.448C152.412 196.213 152.711 195.883 152.924 195.456C153.148 195.029 153.26 194.533 153.26 193.968C153.26 193.403 153.148 192.912 152.924 192.496C152.711 192.069 152.412 191.739 152.028 191.504C151.655 191.259 151.223 191.136 150.732 191.136C150.231 191.136 149.788 191.259 149.404 191.504C149.031 191.739 148.737 192.069 148.524 192.496C148.311 192.912 148.204 193.403 148.204 193.968C148.204 194.533 148.311 195.029 148.524 195.456C148.737 195.883 149.031 196.213 149.404 196.448C149.788 196.683 150.231 196.8 150.732 196.8ZM158.824 198.192C158.067 198.192 157.384 198.016 156.776 197.664C156.179 197.312 155.704 196.821 155.352 196.192C155.011 195.552 154.84 194.816 154.84 193.984C154.84 193.131 155.016 192.389 155.368 191.76C155.72 191.12 156.2 190.624 156.808 190.272C157.416 189.92 158.099 189.744 158.856 189.744C159.624 189.744 160.307 189.92 160.904 190.272C161.502 190.624 161.971 191.115 162.312 191.744C162.664 192.373 162.84 193.115 162.84 193.968C162.84 194.821 162.664 195.563 162.312 196.192C161.971 196.821 161.496 197.312 160.888 197.664C160.28 198.016 159.592 198.192 158.824 198.192ZM158.824 196.816C159.262 196.816 159.656 196.709 160.008 196.496C160.371 196.283 160.659 195.968 160.872 195.552C161.096 195.125 161.208 194.597 161.208 193.968C161.208 193.339 161.102 192.816 160.888 192.4C160.675 191.973 160.387 191.653 160.024 191.44C159.672 191.227 159.283 191.12 158.856 191.12C158.43 191.12 158.035 191.227 157.672 191.44C157.31 191.653 157.016 191.973 156.792 192.4C156.579 192.816 156.472 193.339 156.472 193.968C156.472 194.597 156.579 195.125 156.792 195.552C157.016 195.968 157.304 196.283 157.656 196.496C158.019 196.709 158.408 196.816 158.824 196.816ZM164.473 198L162.105 189.936H163.689L165.449 196.656L165.145 196.64L167.097 189.936H168.889L170.841 196.64L170.537 196.656L172.281 189.936H173.897L171.529 198H169.881L167.833 191.008H168.153L166.105 198H164.473ZM177.108 198.192C176.34 198.192 175.657 198.016 175.06 197.664C174.463 197.312 173.993 196.821 173.652 196.192C173.321 195.563 173.156 194.832 173.156 194C173.156 193.147 173.321 192.405 173.652 191.776C173.993 191.136 174.463 190.64 175.06 190.288C175.657 189.925 176.351 189.744 177.14 189.744C177.929 189.744 178.607 189.92 179.172 190.272C179.737 190.624 180.175 191.093 180.484 191.68C180.793 192.256 180.948 192.896 180.948 193.6C180.948 193.707 180.943 193.824 180.932 193.952C180.932 194.069 180.927 194.203 180.916 194.352H174.324V193.216H179.348C179.316 192.544 179.092 192.021 178.676 191.648C178.26 191.264 177.743 191.072 177.124 191.072C176.687 191.072 176.287 191.173 175.924 191.376C175.561 191.568 175.268 191.856 175.044 192.24C174.831 192.613 174.724 193.088 174.724 193.664V194.112C174.724 194.709 174.831 195.216 175.044 195.632C175.268 196.037 175.561 196.347 175.924 196.56C176.287 196.763 176.681 196.864 177.108 196.864C177.62 196.864 178.041 196.752 178.372 196.528C178.703 196.304 178.948 196 179.108 195.616H180.708C180.569 196.107 180.335 196.549 180.004 196.944C179.673 197.328 179.263 197.632 178.772 197.856C178.292 198.08 177.737 198.192 177.108 198.192ZM181.125 198V189.936H182.565L182.709 191.456C182.891 191.093 183.125 190.789 183.413 190.544C183.701 190.288 184.037 190.091 184.421 189.952C184.816 189.813 185.264 189.744 185.765 189.744V191.44H185.189C184.859 191.44 184.544 191.483 184.245 191.568C183.947 191.643 183.68 191.776 183.445 191.968C183.221 192.16 183.045 192.421 182.917 192.752C182.789 193.083 182.725 193.493 182.725 193.984V198H181.125ZM189.033 198.192C188.265 198.192 187.582 198.016 186.985 197.664C186.388 197.312 185.918 196.821 185.577 196.192C185.246 195.563 185.081 194.832 185.081 194C185.081 193.147 185.246 192.405 185.577 191.776C185.918 191.136 186.388 190.64 186.985 190.288C187.582 189.925 188.276 189.744 189.065 189.744C189.854 189.744 190.532 189.92 191.097 190.272C191.662 190.624 192.1 191.093 192.409 191.68C192.718 192.256 192.873 192.896 192.873 193.6C192.873 193.707 192.868 193.824 192.857 193.952C192.857 194.069 192.852 194.203 192.841 194.352H186.249V193.216H191.273C191.241 192.544 191.017 192.021 190.601 191.648C190.185 191.264 189.668 191.072 189.049 191.072C188.612 191.072 188.212 191.173 187.849 191.376C187.486 191.568 187.193 191.856 186.969 192.24C186.756 192.613 186.649 193.088 186.649 193.664V194.112C186.649 194.709 186.756 195.216 186.969 195.632C187.193 196.037 187.486 196.347 187.849 196.56C188.212 196.763 188.606 196.864 189.033 196.864C189.545 196.864 189.966 196.752 190.297 196.528C190.628 196.304 190.873 196 191.033 195.616H192.633C192.494 196.107 192.26 196.549 191.929 196.944C191.598 197.328 191.188 197.632 190.697 197.856C190.217 198.08 189.662 198.192 189.033 198.192ZM196.635 198.192C195.867 198.192 195.189 198.011 194.603 197.648C194.016 197.275 193.557 196.773 193.227 196.144C192.907 195.504 192.747 194.779 192.747 193.968C192.747 193.147 192.907 192.421 193.227 191.792C193.557 191.163 194.016 190.667 194.603 190.304C195.2 189.931 195.883 189.744 196.651 189.744C197.28 189.744 197.835 189.872 198.315 190.128C198.795 190.373 199.168 190.725 199.435 191.184V186.48H201.035V198H199.611L199.435 196.752C199.275 196.997 199.067 197.232 198.811 197.456C198.555 197.669 198.245 197.845 197.883 197.984C197.52 198.123 197.104 198.192 196.635 198.192ZM196.891 196.8C197.392 196.8 197.835 196.683 198.219 196.448C198.603 196.213 198.896 195.883 199.099 195.456C199.312 195.029 199.419 194.533 199.419 193.968C199.419 193.403 199.312 192.912 199.099 192.496C198.896 192.069 198.603 191.739 198.219 191.504C197.835 191.259 197.392 191.136 196.891 191.136C196.411 191.136 195.979 191.259 195.595 191.504C195.211 191.739 194.912 192.069 194.699 192.496C194.485 192.912 194.379 193.403 194.379 193.968C194.379 194.533 194.485 195.029 194.699 195.456C194.912 195.883 195.211 196.213 195.595 196.448C195.979 196.683 196.411 196.8 196.891 196.8ZM208.516 198.192C208.079 198.192 207.679 198.128 207.316 198C206.964 197.883 206.655 197.717 206.388 197.504C206.121 197.291 205.897 197.045 205.716 196.768L205.556 198H204.116V186.48H205.716V191.2C205.972 190.795 206.329 190.453 206.788 190.176C207.257 189.888 207.833 189.744 208.516 189.744C209.284 189.744 209.961 189.931 210.548 190.304C211.135 190.667 211.588 191.168 211.908 191.808C212.239 192.437 212.404 193.163 212.404 193.984C212.404 194.784 212.239 195.504 211.908 196.144C211.588 196.784 211.135 197.285 210.548 197.648C209.961 198.011 209.284 198.192 208.516 198.192ZM208.26 196.8C208.751 196.8 209.183 196.683 209.556 196.448C209.94 196.213 210.239 195.883 210.452 195.456C210.676 195.029 210.788 194.533 210.788 193.968C210.788 193.403 210.676 192.912 210.452 192.496C210.239 192.069 209.94 191.739 209.556 191.504C209.183 191.259 208.751 191.136 208.26 191.136C207.759 191.136 207.316 191.259 206.932 191.504C206.559 191.739 206.265 192.069 206.052 192.496C205.839 192.912 205.732 193.403 205.732 193.968C205.732 194.533 205.839 195.029 206.052 195.456C206.265 195.883 206.559 196.213 206.932 196.448C207.316 196.683 207.759 196.8 208.26 196.8ZM212.928 201.52L214.896 197.104H214.432L211.248 189.936H212.976L215.504 195.792L218.048 189.936H219.728L214.608 201.52H212.928ZM225.315 201.712C224.579 201.712 223.928 201.616 223.363 201.424C222.798 201.243 222.36 200.96 222.051 200.576C221.742 200.192 221.587 199.723 221.587 199.168C221.587 198.88 221.651 198.587 221.779 198.288C221.907 198 222.115 197.723 222.403 197.456C222.691 197.189 223.08 196.949 223.571 196.736L224.467 197.456C223.923 197.659 223.555 197.899 223.363 198.176C223.182 198.464 223.091 198.741 223.091 199.008C223.091 199.328 223.187 199.595 223.379 199.808C223.571 200.021 223.832 200.181 224.163 200.288C224.504 200.395 224.888 200.448 225.315 200.448C225.731 200.448 226.094 200.389 226.403 200.272C226.712 200.155 226.952 199.989 227.123 199.776C227.294 199.563 227.379 199.312 227.379 199.024C227.379 198.683 227.251 198.395 226.995 198.16C226.739 197.936 226.248 197.803 225.523 197.76C224.915 197.717 224.398 197.659 223.971 197.584C223.555 197.509 223.198 197.419 222.899 197.312C222.611 197.205 222.366 197.088 222.163 196.96C221.971 196.832 221.806 196.699 221.667 196.56V196.192L223.267 194.544L224.563 194.992L222.819 196.608L223.155 195.888C223.272 195.963 223.384 196.037 223.491 196.112C223.598 196.176 223.742 196.235 223.923 196.288C224.104 196.341 224.35 196.389 224.659 196.432C224.968 196.475 225.374 196.517 225.875 196.56C226.6 196.613 227.182 196.741 227.619 196.944C228.067 197.147 228.392 197.419 228.595 197.76C228.798 198.101 228.899 198.507 228.899 198.976C228.899 199.435 228.771 199.872 228.515 200.288C228.27 200.704 227.88 201.045 227.347 201.312C226.824 201.579 226.147 201.712 225.315 201.712ZM225.315 195.52C224.632 195.52 224.051 195.392 223.571 195.136C223.102 194.88 222.739 194.533 222.483 194.096C222.238 193.659 222.115 193.173 222.115 192.64C222.115 192.096 222.238 191.611 222.483 191.184C222.739 190.747 223.107 190.4 223.587 190.144C224.067 189.877 224.643 189.744 225.315 189.744C225.987 189.744 226.558 189.877 227.027 190.144C227.507 190.4 227.87 190.747 228.115 191.184C228.371 191.611 228.499 192.096 228.499 192.64C228.499 193.173 228.371 193.659 228.115 194.096C227.87 194.533 227.507 194.88 227.027 195.136C226.558 195.392 225.987 195.52 225.315 195.52ZM225.315 194.24C225.838 194.24 226.254 194.107 226.563 193.84C226.872 193.563 227.027 193.163 227.027 192.64C227.027 192.117 226.872 191.723 226.563 191.456C226.254 191.179 225.838 191.04 225.315 191.04C224.792 191.04 224.371 191.179 224.051 191.456C223.731 191.723 223.571 192.117 223.571 192.64C223.571 193.163 223.731 193.563 224.051 193.84C224.371 194.107 224.792 194.24 225.315 194.24ZM226.627 191.2L226.243 189.936H229.555V191.04L226.627 191.2ZM229.672 198V189.936H231.272V198H229.672ZM230.488 188.416C230.179 188.416 229.923 188.32 229.72 188.128C229.528 187.936 229.432 187.691 229.432 187.392C229.432 187.104 229.528 186.869 229.72 186.688C229.923 186.496 230.179 186.4 230.488 186.4C230.787 186.4 231.037 186.496 231.24 186.688C231.443 186.869 231.544 187.104 231.544 187.392C231.544 187.691 231.443 187.936 231.24 188.128C231.037 188.32 230.787 188.416 230.488 188.416ZM235.272 198C234.771 198 234.333 197.92 233.96 197.76C233.587 197.6 233.299 197.333 233.096 196.96C232.893 196.587 232.792 196.08 232.792 195.44V191.296H231.4V189.936H232.792L232.984 187.92H234.392V189.936H236.68V191.296H234.392V195.456C234.392 195.915 234.488 196.229 234.68 196.4C234.872 196.56 235.203 196.64 235.672 196.64H236.6V198H235.272ZM240.353 198.192C239.575 198.192 238.881 198.016 238.273 197.664C237.665 197.301 237.185 196.805 236.833 196.176C236.492 195.547 236.321 194.816 236.321 193.984C236.321 193.141 236.492 192.405 236.833 191.776C237.185 191.136 237.665 190.64 238.273 190.288C238.881 189.925 239.575 189.744 240.353 189.744C241.335 189.744 242.156 190 242.817 190.512C243.479 191.024 243.9 191.717 244.081 192.592H242.417C242.311 192.123 242.065 191.76 241.681 191.504C241.308 191.248 240.86 191.12 240.337 191.12C239.911 191.12 239.516 191.232 239.153 191.456C238.791 191.669 238.497 191.989 238.273 192.416C238.06 192.832 237.953 193.349 237.953 193.968C237.953 194.427 238.017 194.837 238.145 195.2C238.273 195.552 238.444 195.851 238.657 196.096C238.881 196.341 239.137 196.528 239.425 196.656C239.713 196.773 240.017 196.832 240.337 196.832C240.689 196.832 241.004 196.779 241.281 196.672C241.569 196.555 241.809 196.384 242.001 196.16C242.204 195.936 242.343 195.669 242.417 195.36H244.081C243.9 196.213 243.479 196.901 242.817 197.424C242.156 197.936 241.335 198.192 240.353 198.192ZM248.034 198.192C247.276 198.192 246.594 198.016 245.986 197.664C245.388 197.312 244.914 196.821 244.562 196.192C244.22 195.552 244.05 194.816 244.05 193.984C244.05 193.131 244.226 192.389 244.578 191.76C244.93 191.12 245.41 190.624 246.018 190.272C246.626 189.92 247.308 189.744 248.066 189.744C248.834 189.744 249.516 189.92 250.114 190.272C250.711 190.624 251.18 191.115 251.522 191.744C251.874 192.373 252.05 193.115 252.05 193.968C252.05 194.821 251.874 195.563 251.522 196.192C251.18 196.821 250.706 197.312 250.098 197.664C249.49 198.016 248.802 198.192 248.034 198.192ZM248.034 196.816C248.471 196.816 248.866 196.709 249.218 196.496C249.58 196.283 249.868 195.968 250.082 195.552C250.306 195.125 250.418 194.597 250.418 193.968C250.418 193.339 250.311 192.816 250.098 192.4C249.884 191.973 249.596 191.653 249.234 191.44C248.882 191.227 248.492 191.12 248.066 191.12C247.639 191.12 247.244 191.227 246.882 191.44C246.519 191.653 246.226 191.973 246.002 192.4C245.788 192.816 245.682 193.339 245.682 193.968C245.682 194.597 245.788 195.125 246.002 195.552C246.226 195.968 246.514 196.283 246.866 196.496C247.228 196.709 247.618 196.816 248.034 196.816ZM252.444 198V189.936H254.044V198H252.444ZM253.26 188.416C252.95 188.416 252.694 188.32 252.492 188.128C252.3 187.936 252.204 187.691 252.204 187.392C252.204 187.104 252.3 186.869 252.492 186.688C252.694 186.496 252.95 186.4 253.26 186.4C253.558 186.4 253.809 186.496 254.012 186.688C254.214 186.869 254.316 187.104 254.316 187.392C254.316 187.691 254.214 187.936 254.012 188.128C253.809 188.32 253.558 188.416 253.26 188.416ZM254.732 198V189.936H256.172L256.268 191.312C256.524 190.832 256.886 190.453 257.356 190.176C257.825 189.888 258.364 189.744 258.972 189.744C259.612 189.744 260.161 189.872 260.62 190.128C261.078 190.384 261.436 190.773 261.692 191.296C261.948 191.808 262.076 192.453 262.076 193.232V198H260.476V193.392C260.476 192.645 260.31 192.08 259.98 191.696C259.649 191.312 259.169 191.12 258.54 191.12C258.124 191.12 257.75 191.221 257.42 191.424C257.089 191.616 256.822 191.904 256.62 192.288C256.428 192.672 256.332 193.141 256.332 193.696V198H254.732Z" fill="black"/>
</svg>
