<svg width="28" height="28" viewBox="0 0 28 28" fill="none" xmlns="http://www.w3.org/2000/svg">
<rect width="28" height="28" rx="14" fill="#8247E5"/>
<rect width="28" height="28" rx="14" fill="url(#paint0_linear_2321_1424)" fill-opacity="0.3"/>
<path d="M18.2776 10.919C17.9676 10.7331 17.5647 10.7331 17.2237 10.919L14.806 12.3449L13.1632 13.2748L10.7455 14.7006C10.4355 14.8866 10.0326 14.8866 9.69161 14.7006L7.76984 13.5847C7.45988 13.3987 7.2429 13.0578 7.2429 12.6858V10.4851C7.2429 10.1131 7.42888 9.77217 7.76984 9.58619L9.66062 8.50132C9.97058 8.31534 10.3735 8.31534 10.7145 8.50132L12.6053 9.58619C12.9152 9.77217 13.1322 10.1131 13.1322 10.4851V11.9109L14.775 10.95V9.5242C14.775 9.15224 14.589 8.81128 14.2481 8.6253L10.7455 6.57955C10.4355 6.39357 10.0326 6.39357 9.69161 6.57955L6.12704 8.6253C5.78608 8.81128 5.6001 9.15224 5.6001 9.5242V13.6467C5.6001 14.0187 5.78608 14.3596 6.12704 14.5456L9.69161 16.5914C10.0016 16.7773 10.4045 16.7773 10.7455 16.5914L13.1632 15.1965L14.806 14.2356L17.2237 12.8408C17.5337 12.6548 17.9366 12.6548 18.2776 12.8408L20.1684 13.9257C20.4783 14.1117 20.6953 14.4526 20.6953 14.8246V17.0253C20.6953 17.3973 20.5093 17.7382 20.1684 17.9242L18.2776 19.0401C17.9676 19.226 17.5647 19.226 17.2237 19.0401L15.3329 17.9552C15.023 17.7692 14.806 17.4283 14.806 17.0563V15.6305L13.1632 16.5914V18.0172C13.1632 18.3891 13.3492 18.7301 13.6901 18.9161L17.2547 20.9618C17.5647 21.1478 17.9676 21.1478 18.3086 20.9618L21.8732 18.9161C22.1831 18.7301 22.4001 18.3891 22.4001 18.0172V13.8947C22.4001 13.5227 22.2141 13.1818 21.8732 12.9958L18.2776 10.919Z" fill="white"/>
<defs>
<linearGradient id="paint0_linear_2321_1424" x1="0" y1="0" x2="14" y2="28" gradientUnits="userSpaceOnUse">
<stop stop-color="white"/>
<stop offset="1" stop-color="white" stop-opacity="0"/>
</linearGradient>
</defs>
</svg>
