<svg width="20" height="20" viewBox="0 0 20 20" fill="#555555" xmlns="http://www.w3.org/2000/svg">
<path fill-rule="evenodd" clip-rule="evenodd" d="M9.6641 1.6665C7.76488 1.66752 5.92792 2.36113 4.48172 3.62331C3.03551 4.88548 2.07435 6.63393 1.7701 8.55599C1.46586 10.4781 1.83836 12.4484 2.82101 14.1147C3.80366 15.781 5.33238 17.0347 7.13382 17.6514C7.53125 17.7275 7.68094 17.4735 7.68094 17.2576C7.68094 17.0416 7.67299 16.4155 7.67034 15.7309C5.44476 16.2267 4.97447 14.7625 4.97447 14.7625C4.61149 13.8117 4.08689 13.5618 4.08689 13.5618C3.36092 13.0539 4.1412 13.0634 4.1412 13.0634C4.94533 13.1218 5.36793 13.9095 5.36793 13.9095C6.08065 15.1632 7.2398 14.8005 7.69551 14.5886C7.76705 14.0576 7.97504 13.6963 8.20422 13.4912C6.4264 13.2848 4.5585 12.5812 4.5585 9.43826C4.54748 8.62316 4.84249 7.83491 5.3825 7.23658C5.30036 7.03013 5.02613 6.19618 5.46065 5.06342C5.46065 5.06342 6.13231 4.84339 7.66108 5.90416C8.97235 5.53651 10.3559 5.53651 11.6671 5.90416C13.1946 4.84339 13.8649 5.06342 13.8649 5.06342C14.3007 6.19347 14.0265 7.02741 13.9444 7.23658C14.4861 7.835 14.7817 8.62463 14.7697 9.44098C14.7697 12.5907 12.8978 13.2848 11.1174 13.4871C11.4035 13.7425 11.6592 14.2409 11.6592 15.007C11.6592 16.1044 11.6499 16.9873 11.6499 17.2576C11.6499 17.4762 11.7943 17.7316 12.1997 17.6514C14.0013 17.0346 15.5302 15.7807 16.5128 14.1141C17.4955 12.4475 17.8678 10.4769 17.5632 8.55465C17.2586 6.63241 16.297 4.88395 14.8503 3.62199C13.4036 2.36003 11.5662 1.66688 9.66675 1.6665H9.6641Z" />
<path d="M4.69337 13.4437C4.67614 13.4844 4.61256 13.4967 4.56089 13.4681C4.50923 13.4396 4.47081 13.3867 4.48936 13.3445C4.5079 13.3024 4.57017 13.2916 4.62183 13.3201C4.6735 13.3486 4.71324 13.403 4.69337 13.4437Z" />
<path d="M5.01806 13.8147C4.99062 13.8288 4.95923 13.8328 4.92927 13.8259C4.8993 13.8189 4.87262 13.8015 4.85379 13.7766C4.80212 13.7196 4.79152 13.6408 4.83126 13.6055C4.87101 13.5702 4.94255 13.5865 4.99421 13.6435C5.04588 13.7006 5.0578 13.7793 5.01806 13.8147Z" />
<path d="M5.3334 14.2859C5.28439 14.3212 5.20092 14.2859 5.15456 14.2152C5.14173 14.2026 5.13154 14.1874 5.12457 14.1706C5.11761 14.1538 5.11401 14.1357 5.11401 14.1174C5.11401 14.0992 5.11761 14.0811 5.12457 14.0643C5.13154 14.0475 5.14173 14.0323 5.15456 14.0196C5.20357 13.9857 5.28704 14.0196 5.3334 14.0889C5.37977 14.1582 5.38109 14.2505 5.3334 14.2859Z" />
<path d="M5.76132 14.7419C5.7176 14.7921 5.62884 14.7785 5.55598 14.7106C5.48312 14.6427 5.46589 14.5504 5.50961 14.5015C5.55333 14.4526 5.64209 14.4662 5.7176 14.5327C5.79311 14.5993 5.80768 14.693 5.76132 14.7419Z" />
<path d="M6.36136 15.0082C6.34149 15.072 6.2514 15.1005 6.16132 15.0734C6.07123 15.0462 6.01162 14.9701 6.02884 14.9049C6.04606 14.8397 6.13747 14.8099 6.22888 14.8397C6.32029 14.8696 6.37858 14.9416 6.36136 15.0082Z" />
<path d="M7.01571 15.0546C7.01571 15.1212 6.94153 15.1782 6.84615 15.1796C6.75077 15.1809 6.67261 15.1266 6.67261 15.06C6.67261 14.9935 6.74679 14.9364 6.84217 14.9351C6.93755 14.9337 7.01571 14.9867 7.01571 15.0546Z" />
<path d="M7.62501 14.9497C7.63693 15.0163 7.57069 15.0855 7.47531 15.1018C7.37993 15.1181 7.29647 15.0788 7.28455 15.0136C7.27262 14.9484 7.34151 14.8777 7.43424 14.8601C7.52698 14.8424 7.61309 14.8832 7.62501 14.9497Z" />
</svg>
