<svg width="840" height="214" viewBox="0 0 840 214" fill="black" xmlns="http://www.w3.org/2000/svg">
  <path
    d="M88.6775 209.786H0V1.96724H89.5823C129.698 1.96724 150.812 21.5728 150.812 50.5287C150.812 77.0716 131.81 93.9626 109.49 98.1853C141.16 101.503 161.972 122.014 161.972 151.874C161.972 191.387 132.111 209.786 88.6775 209.786ZM35.29 30.6215V87.9301H79.6287C101.346 87.9301 114.919 77.0716 114.919 57.7677C114.919 39.3686 102.854 30.6215 80.5336 30.6215H35.29ZM35.29 116.283V179.925H87.1693C113.109 179.925 125.476 167.86 125.476 148.255C125.476 128.348 113.109 116.283 88.0742 116.283H35.29Z" />
  <path
    d="M222.134 213.104C191.067 213.104 175.081 191.387 175.081 157.605V61.9904H209.164V149.16C209.164 172.686 217.61 184.148 234.501 184.148C255.916 184.148 271.601 167.559 271.601 134.983V61.9904H305.986V209.786H272.204V176.608C264.362 197.721 247.169 213.104 222.134 213.104Z" />
  <path d="M362.008 36.3524H328.226V0.760742H362.008V36.3524ZM362.309 209.786H327.924V61.9904H362.309V209.786Z" />
  <path d="M418.805 209.786H384.42V1.96724H418.805V209.786Z" />
  <path
    d="M542.563 90.0414V1.96724H577.249V209.786H543.166V181.434C535.022 200.134 518.131 213.406 493.7 213.406C458.711 213.406 433.375 185.656 433.375 135.888C433.375 87.9301 458.711 58.3709 495.208 58.3709C519.941 58.3709 535.324 72.5472 542.563 90.0414ZM505.765 187.768C528.99 187.768 543.166 166.956 543.166 135.888C543.166 103.313 528.688 84.009 506.066 84.009C482.539 84.009 468.363 102.71 468.363 135.587C468.363 169.67 482.238 187.768 505.765 187.768Z" />
  <path
    d="M731.431 136.492V142.524H625.561C626.466 168.765 639.134 186.863 665.074 186.863C683.775 186.863 695.839 176.004 702.475 158.51L730.828 170.273C721.779 193.498 699.761 213.104 663.867 213.104C617.417 213.104 591.779 182.338 591.779 135.285C591.779 86.1203 622.545 57.4661 662.962 57.4661C706.698 57.4661 731.431 88.2317 731.431 136.492ZM662.661 82.8025C642.15 82.8025 628.879 96.0739 626.466 118.997H697.046C695.84 94.8674 682.568 82.8025 662.661 82.8025Z" />
  <path
    d="M780.334 209.786H746.251V61.9904H779.731V102.408C788.478 75.2619 806.274 57.7677 833.118 57.7677C835.23 57.7677 837.04 57.7677 839.151 58.0693V93.3593C836.436 92.7561 833.722 92.7561 830.102 92.7561C799.94 92.7561 780.334 109.044 780.334 147.048V209.786Z" />
</svg>