<svg width="474" height="480" viewBox="0 0 474 480" fill="#DEAB0C" xmlns="http://www.w3.org/2000/svg">
  <path
    d="M237.225 479.247H236.938C233.474 479.199 230.072 478.314 227.024 476.667C223.975 475.02 221.37 472.66 219.431 469.788L144.358 348.533C139.842 341.832 134.058 336.079 127.332 331.599L9.55055 257.558C6.57756 255.571 4.1472 252.875 2.47974 249.712C0.812279 246.549 -0.0395765 243.02 0.00141222 239.445C0.0424009 235.87 0.97505 232.362 2.71458 229.238C4.45411 226.114 6.94568 223.475 9.96342 221.557L115.844 159.393C122.739 155.031 128.701 149.346 133.385 142.666L219.374 9.13101C221.378 6.27591 224.048 3.9525 227.153 2.36166C230.257 0.770824 233.702 -0.0391934 237.19 0.00145792C240.678 0.0421093 244.104 0.93235 247.171 2.59511C250.237 4.25786 252.852 6.64256 254.789 9.5436L332.752 137.953C337.132 144.501 342.72 150.155 349.216 154.612L463.868 227.989C466.791 229.997 469.172 232.697 470.797 235.85C472.423 239.002 473.242 242.509 473.182 246.055C473.121 249.601 472.184 253.078 470.452 256.173C468.721 259.269 466.25 261.887 463.26 263.794L353.195 328.985C346.494 333.25 340.679 338.766 336.066 345.231L254.572 470.293C252.593 473.05 249.99 475.298 246.975 476.855C243.959 478.411 240.618 479.231 237.225 479.247ZM63.517 227.771C61.4358 229.09 59.7171 230.908 58.5169 233.06C57.3168 235.212 56.6734 237.629 56.6449 240.093C56.6164 242.557 57.2037 244.988 58.3537 247.167C59.5038 249.346 61.1802 251.203 63.2303 252.57L146.157 303.395C156.551 310.317 165.49 319.205 172.47 329.558L227.422 421.016C228.552 422.703 230.075 424.091 231.86 425.059C233.645 426.028 235.638 426.548 237.669 426.575C239.699 426.602 241.706 426.135 243.516 425.215C245.326 424.294 246.885 422.948 248.06 421.291L308.641 325.477C315.773 315.483 324.761 306.956 335.114 300.357L411.369 256.732C413.333 255.478 414.956 253.757 416.093 251.724C417.23 249.69 417.846 247.406 417.886 245.076C417.926 242.747 417.388 240.443 416.321 238.372C415.254 236.301 413.69 234.525 411.77 233.205L330.15 182.541C320.109 175.652 311.478 166.908 304.72 156.779L246.879 58.6029C245.75 56.9128 244.226 55.5235 242.439 54.5548C240.652 53.5862 238.656 53.0676 236.624 53.0439C234.591 53.0202 232.584 53.4921 230.775 54.4188C228.966 55.3455 227.41 56.6989 226.241 58.3622L161.509 161.629C154.002 172.305 144.465 181.398 133.443 188.388L63.517 227.771Z" />
  <path
    d="M239.473 271.132C253.466 271.132 264.811 259.788 264.811 245.794C264.811 231.8 253.466 220.456 239.473 220.456C225.479 220.456 214.135 231.8 214.135 245.794C214.135 259.788 225.479 271.132 239.473 271.132Z" />
  <path
    d="M371.838 147.458C385.832 147.458 397.176 136.113 397.176 122.12C397.176 108.126 385.832 96.7822 371.838 96.7822C357.845 96.7822 346.501 108.126 346.501 122.12C346.501 136.113 357.845 147.458 371.838 147.458Z" />
  <path
    d="M107.12 392.455C121.113 392.455 132.457 381.111 132.457 367.118C132.457 353.124 121.113 341.78 107.12 341.78C93.1258 341.78 81.7815 353.124 81.7815 367.118C81.7815 381.111 93.1258 392.455 107.12 392.455Z" />
</svg>