<svg width="476" height="480" viewBox="0 0 476 480" fill="black" xmlns="http://www.w3.org/2000/svg">
  <path
    d="M237.722 479.247C106.645 479.247 0 371.749 0 239.624C0 107.498 106.645 0 237.722 0C368.799 0 475.443 107.498 475.443 239.624C475.443 371.749 368.799 479.247 237.722 479.247ZM221.957 437.193C221.694 437.492 221.513 437.856 221.433 438.247C221.352 438.638 221.374 439.044 221.497 439.424C221.62 439.804 221.84 440.145 222.134 440.414C222.428 440.682 222.787 440.868 223.174 440.953C232.799 442.826 242.69 442.826 252.315 440.953C252.702 440.868 253.061 440.682 253.355 440.414C253.649 440.145 253.869 439.804 253.992 439.424C254.115 439.044 254.137 438.638 254.056 438.247C253.976 437.856 253.795 437.492 253.532 437.193C251.546 434.952 249.114 433.159 246.393 431.931C243.672 430.703 240.725 430.069 237.744 430.069C234.764 430.069 231.817 430.703 229.096 431.931C226.375 433.159 223.943 434.952 221.957 437.193ZM237.733 273.446C193.544 273.446 157.602 311.281 157.602 357.899C157.542 369.969 160.007 381.916 164.836 392.961C169.665 404.006 176.75 413.902 185.628 422.001C186.104 422.438 186.668 422.766 187.282 422.962C187.895 423.158 188.544 423.217 189.183 423.137C189.821 423.056 190.435 422.837 190.982 422.495C191.529 422.152 191.995 421.694 192.35 421.153C197.31 413.591 204.052 407.387 211.973 403.095C219.893 398.803 228.746 396.556 237.739 396.556C246.732 396.556 255.584 398.803 263.505 403.095C271.426 407.387 278.168 413.591 283.128 421.153C283.485 421.693 283.953 422.149 284.501 422.491C285.048 422.832 285.663 423.051 286.302 423.131C286.941 423.212 287.59 423.153 288.204 422.958C288.818 422.763 289.383 422.436 289.861 422.001C298.729 413.9 305.804 404.007 310.627 392.967C315.45 381.926 317.912 369.985 317.853 357.922C317.853 311.327 281.911 273.446 237.733 273.446ZM236.596 160.227C158.637 160.823 95.5549 225.934 96.6924 304.506C97.0291 329.718 104.051 354.379 117.03 375.934C117.557 376.819 118.37 377.495 119.333 377.85C120.296 378.204 121.349 378.215 122.319 377.882C123.289 377.548 124.116 376.889 124.662 376.015C125.208 375.141 125.441 374.105 125.321 373.079C124.7 368.043 124.389 362.974 124.389 357.899C124.389 292.845 175.243 239.922 237.767 239.922C300.291 239.922 351.134 292.845 351.134 357.899C351.139 362.943 350.831 367.982 350.213 372.988C350.097 374.012 350.332 375.046 350.879 375.918C351.427 376.789 352.253 377.445 353.222 377.777C354.191 378.11 355.243 378.097 356.204 377.743C357.165 377.389 357.977 376.715 358.505 375.831C371.462 354.181 378.457 329.439 378.769 304.157C379.08 278.874 372.697 253.966 360.277 231.998C347.857 210.031 329.85 191.799 308.111 179.184C286.373 166.568 261.69 160.024 236.607 160.227H236.596ZM239.417 126.714C333.823 127.643 410.849 205.125 411.998 300.24C412.143 311.895 411.141 323.536 409.007 334.992C408.803 336.05 408.982 337.147 409.512 338.085C410.041 339.022 410.886 339.737 411.893 340.102C412.9 340.466 414.003 340.455 415.003 340.071C416.003 339.687 416.833 338.954 417.344 338.007C433.53 308.108 442.068 274.613 442.185 240.552C442.674 126.955 350.827 33.7654 238.131 33.5246C125.196 33.2953 33.2355 125.843 33.2355 239.635C33.1941 273.993 41.7247 307.809 58.0427 337.973C58.554 338.918 59.3833 339.647 60.3811 340.031C61.3789 340.414 62.4798 340.425 63.4853 340.063C64.4908 339.701 65.3348 338.988 65.8655 338.054C66.3963 337.12 66.5788 336.026 66.3801 334.969C64.3839 324.24 63.3825 313.347 63.3887 302.43C63.4 204.953 142.542 125.774 239.428 126.714H239.417Z" />
</svg>