<svg width="1093" height="272" viewBox="0 0 1093 272" fill="black" xmlns="http://www.w3.org/2000/svg">
  <path
    d="M111.601 160.09L167.703 0.832031H223.202V208.651H188.515V34.0107L125.476 208.651H94.7099L33.7819 34.3123V208.651H0V0.832031H57.9118L111.601 160.09Z" />
  <path
    d="M382.69 186.331C385.706 186.331 389.024 186.029 392.342 184.521V206.54C387.516 209.556 379.674 211.366 372.133 211.366C351.623 211.366 340.463 200.205 339.256 180.902C331.716 199.602 314.523 212.874 289.488 212.874C261.437 212.874 241.229 196.586 241.229 167.63C241.229 129.927 272.899 116.354 312.412 115.751C321.461 115.751 329.001 116.354 336.24 116.957V108.813C336.24 90.1127 327.191 79.8575 305.776 79.8575C288.282 79.8575 276.82 88.303 275.614 103.686V106.4L243.34 100.971C244.848 74.4283 270.184 56.3309 305.776 56.3309C346.797 56.3309 369.419 76.5396 369.419 113.941V169.44C369.419 182.41 373.641 186.331 382.69 186.331ZM300.648 187.537C322.064 187.537 336.24 172.758 336.24 147.723V137.166C331.414 136.864 326.286 136.563 320.556 136.563C292.505 137.166 275.01 144.707 275.01 165.217C275.01 179.092 284.662 187.537 300.648 187.537Z" />
  <path
    d="M481.003 57.5373C513.277 57.5373 530.771 80.1591 530.771 113.639V208.651H496.084V122.085C496.084 98.2566 487.036 86.4932 468.335 86.4932C446.618 86.4932 431.235 104.591 431.235 134.753V208.651H396.85V60.8552H430.33V95.542C437.871 73.5234 455.365 57.5373 481.003 57.5373Z" />
  <path
    d="M685.964 186.331C688.98 186.331 692.298 186.029 695.616 184.521V206.54C690.79 209.556 682.947 211.366 675.407 211.366C654.896 211.366 643.736 200.205 642.53 180.902C634.989 199.602 617.797 212.874 592.762 212.874C564.711 212.874 544.502 196.586 544.502 167.63C544.502 129.927 576.172 116.354 615.685 115.751C624.734 115.751 632.275 116.354 639.514 116.957V108.813C639.514 90.1127 630.465 79.8575 609.05 79.8575C591.555 79.8575 580.094 88.303 578.887 103.686V106.4L546.613 100.971C548.121 74.4283 573.458 56.3309 609.05 56.3309C650.07 56.3309 672.692 76.5396 672.692 113.941V169.44C672.692 182.41 676.915 186.331 685.964 186.331ZM603.922 187.537C625.337 187.537 639.514 172.758 639.514 147.723V137.166C634.688 136.864 629.56 136.563 623.829 136.563C595.778 137.166 578.284 144.707 578.284 165.217C578.284 179.092 587.936 187.537 603.922 187.537Z" />
  <path
    d="M731.191 162.804C724.253 165.217 717.919 170.345 717.919 176.98C717.919 184.823 724.253 188.442 738.43 188.442H793.627C823.186 188.442 840.982 201.412 840.982 224.637C840.982 254.196 815.344 271.69 757.13 271.69C711.887 271.69 688.059 260.229 688.059 238.813C688.059 224.939 699.219 216.795 712.49 212.874C700.123 209.556 691.98 201.11 691.98 186.934C691.98 171.551 704.95 160.693 718.523 156.47C704.346 146.818 695.297 132.038 695.297 112.735C695.297 81.064 721.539 56.9341 760.448 56.9341C787.594 56.9341 808.708 68.0942 817.757 86.1916C818.963 62.9666 829.219 51.2032 853.047 51.5049L855.46 79.5559H850.634C834.949 79.5559 826.202 86.1916 824.996 104.591V112.131C823.186 145.008 799.659 167.63 760.147 167.63C749.59 167.63 739.938 165.82 731.191 162.804ZM760.147 80.4608C741.446 80.4608 728.476 90.716 728.476 112.735C728.476 134.451 741.446 144.707 760.147 144.707C778.847 144.707 792.119 134.451 792.119 112.433C792.119 90.4144 778.847 80.4608 760.147 80.4608ZM790.007 216.795H736.922C723.047 216.795 714.903 223.129 714.903 231.876C714.903 243.941 729.683 249.069 758.639 249.069C795.738 249.069 809.915 242.734 809.915 229.765C809.915 221.018 802.977 216.795 790.007 216.795Z" />
  <path
    d="M985.043 135.356V141.389H879.173C880.078 167.63 892.746 185.728 918.685 185.728C937.386 185.728 949.451 174.869 956.087 157.375L984.44 169.138C975.391 192.363 953.372 211.969 917.479 211.969C871.029 211.969 845.391 181.203 845.391 134.15C845.391 84.9851 876.156 56.3309 916.574 56.3309C960.31 56.3309 985.043 87.0965 985.043 135.356ZM916.272 81.6673C895.762 81.6673 882.491 94.9387 880.078 117.862H950.658C949.451 93.7322 936.18 81.6673 916.272 81.6673Z" />
  <path
    d="M1033.95 208.651H999.862V60.8552H1033.34V101.273C1042.09 74.1267 1059.89 56.6325 1086.73 56.6325C1088.84 56.6325 1090.65 56.6325 1092.76 56.9341V92.2241C1090.05 91.6209 1087.33 91.6209 1083.71 91.6209C1053.55 91.6209 1033.95 107.909 1033.95 145.913V208.651Z" />
</svg>