<svg width="1672" height="480" viewBox="0 0 1672 480" fill="black" xmlns="http://www.w3.org/2000/svg">
  <path
    d="M690.554 320.09L746.656 160.832H802.154V368.651H767.468V194.011L704.428 368.651H673.663L612.735 194.312V368.651H578.953V160.832H636.864L690.554 320.09Z" />
  <path
    d="M961.643 346.331C964.659 346.331 967.977 346.029 971.295 344.521V366.54C966.469 369.556 958.627 371.366 951.086 371.366C930.576 371.366 919.415 360.205 918.209 340.902C910.668 359.602 893.476 372.874 868.441 372.874C840.39 372.874 820.181 356.586 820.181 327.63C820.181 289.927 851.852 276.354 891.364 275.751C900.413 275.751 907.954 276.354 915.193 276.957V268.813C915.193 250.113 906.144 239.858 884.729 239.858C867.234 239.858 855.773 248.303 854.566 263.686V266.4L822.293 260.971C823.801 234.428 849.137 216.331 884.729 216.331C925.75 216.331 948.371 236.54 948.371 273.941V329.44C948.371 342.41 952.594 346.331 961.643 346.331ZM879.601 347.537C901.016 347.537 915.193 332.758 915.193 307.723V297.166C910.367 296.864 905.239 296.563 899.508 296.563C871.457 297.166 853.963 304.707 853.963 325.217C853.963 339.092 863.615 347.537 879.601 347.537Z" />
  <path
    d="M1059.96 217.537C1092.23 217.537 1109.72 240.159 1109.72 273.639V368.651H1075.04V282.085C1075.04 258.257 1065.99 246.493 1047.29 246.493C1025.57 246.493 1010.19 264.591 1010.19 294.753V368.651H975.803V220.855H1009.28V255.542C1016.82 233.523 1034.32 217.537 1059.96 217.537Z" />
  <path
    d="M1264.92 346.331C1267.93 346.331 1271.25 346.029 1274.57 344.521V366.54C1269.74 369.556 1261.9 371.366 1254.36 371.366C1233.85 371.366 1222.69 360.205 1221.48 340.902C1213.94 359.602 1196.75 372.874 1171.71 372.874C1143.66 372.874 1123.45 356.586 1123.45 327.63C1123.45 289.927 1155.13 276.354 1194.64 275.751C1203.69 275.751 1211.23 276.354 1218.47 276.957V268.813C1218.47 250.113 1209.42 239.858 1188 239.858C1170.51 239.858 1159.05 248.303 1157.84 263.686V266.4L1125.57 260.971C1127.07 234.428 1152.41 216.331 1188 216.331C1229.02 216.331 1251.64 236.54 1251.64 273.941V329.44C1251.64 342.41 1255.87 346.331 1264.92 346.331ZM1182.87 347.537C1204.29 347.537 1218.47 332.758 1218.47 307.723V297.166C1213.64 296.864 1208.51 296.563 1202.78 296.563C1174.73 297.166 1157.24 304.707 1157.24 325.217C1157.24 339.092 1166.89 347.537 1182.87 347.537Z" />
  <path
    d="M1310.14 322.804C1303.21 325.217 1296.87 330.345 1296.87 336.98C1296.87 344.823 1303.21 348.442 1317.38 348.442H1372.58C1402.14 348.442 1419.93 361.412 1419.93 384.637C1419.93 414.196 1394.3 431.69 1336.08 431.69C1290.84 431.69 1267.01 420.229 1267.01 398.813C1267.01 384.939 1278.17 376.795 1291.44 372.874C1279.08 369.556 1270.93 361.11 1270.93 346.934C1270.93 331.551 1283.9 320.693 1297.48 316.47C1283.3 306.818 1274.25 292.038 1274.25 272.735C1274.25 241.064 1300.49 216.934 1339.4 216.934C1366.55 216.934 1387.66 228.094 1396.71 246.192C1397.92 222.967 1408.17 211.203 1432 211.505L1434.41 239.556H1429.59C1413.9 239.556 1405.15 246.192 1403.95 264.591V272.131C1402.14 305.008 1378.61 327.63 1339.1 327.63C1328.54 327.63 1318.89 325.82 1310.14 322.804ZM1339.1 240.461C1320.4 240.461 1307.43 250.716 1307.43 272.735C1307.43 294.451 1320.4 304.707 1339.1 304.707C1357.8 304.707 1371.07 294.451 1371.07 272.433C1371.07 250.414 1357.8 240.461 1339.1 240.461ZM1368.96 376.795H1315.87C1302 376.795 1293.86 383.129 1293.86 391.876C1293.86 403.941 1308.64 409.069 1337.59 409.069C1374.69 409.069 1388.87 402.734 1388.87 389.765C1388.87 381.018 1381.93 376.795 1368.96 376.795Z" />
  <path
    d="M1564 295.356V301.389H1458.13C1459.03 327.63 1471.7 345.728 1497.64 345.728C1516.34 345.728 1528.4 334.869 1535.04 317.375L1563.39 329.138C1554.34 352.363 1532.32 371.969 1496.43 371.969C1449.98 371.969 1424.34 341.203 1424.34 294.15C1424.34 244.985 1455.11 216.331 1495.53 216.331C1539.26 216.331 1564 247.096 1564 295.356ZM1495.23 241.667C1474.71 241.667 1461.44 254.939 1459.03 277.862H1529.61C1528.4 253.732 1515.13 241.667 1495.23 241.667Z" />
  <path
    d="M1612.9 368.651H1578.81V220.855H1612.3V261.273C1621.04 234.127 1638.84 216.632 1665.68 216.632C1667.79 216.632 1669.6 216.632 1671.72 216.934V252.224C1669 251.621 1666.29 251.621 1662.67 251.621C1632.5 251.621 1612.9 267.909 1612.9 305.913V368.651Z" />
  <path
    d="M237.722 479.247C106.645 479.247 0 371.749 0 239.624C0 107.498 106.645 0 237.722 0C368.799 0 475.443 107.498 475.443 239.624C475.443 371.749 368.799 479.247 237.722 479.247ZM221.957 437.193C221.694 437.492 221.513 437.856 221.433 438.247C221.352 438.638 221.374 439.044 221.497 439.424C221.62 439.804 221.84 440.145 222.134 440.414C222.428 440.682 222.787 440.868 223.174 440.953C232.799 442.826 242.69 442.826 252.315 440.953C252.702 440.868 253.061 440.682 253.355 440.414C253.649 440.145 253.869 439.804 253.992 439.424C254.115 439.044 254.137 438.638 254.056 438.247C253.976 437.856 253.795 437.492 253.532 437.193C251.546 434.952 249.114 433.159 246.393 431.931C243.672 430.703 240.725 430.069 237.744 430.069C234.764 430.069 231.817 430.703 229.096 431.931C226.375 433.159 223.943 434.952 221.957 437.193ZM237.733 273.446C193.544 273.446 157.602 311.281 157.602 357.899C157.542 369.969 160.007 381.916 164.836 392.961C169.665 404.006 176.75 413.902 185.628 422.001C186.104 422.438 186.668 422.766 187.282 422.962C187.895 423.158 188.544 423.217 189.183 423.137C189.821 423.056 190.435 422.837 190.982 422.495C191.529 422.152 191.995 421.694 192.35 421.153C197.31 413.591 204.052 407.387 211.973 403.095C219.893 398.803 228.746 396.556 237.739 396.556C246.732 396.556 255.584 398.803 263.505 403.095C271.426 407.387 278.168 413.591 283.128 421.153C283.485 421.693 283.953 422.149 284.501 422.491C285.048 422.832 285.663 423.051 286.302 423.131C286.941 423.212 287.59 423.153 288.204 422.958C288.818 422.763 289.383 422.436 289.861 422.001C298.729 413.9 305.804 404.007 310.627 392.967C315.45 381.926 317.912 369.985 317.853 357.922C317.853 311.327 281.911 273.446 237.733 273.446ZM236.596 160.227C158.637 160.823 95.5549 225.934 96.6924 304.506C97.0291 329.718 104.051 354.379 117.03 375.934C117.557 376.819 118.37 377.495 119.333 377.85C120.296 378.204 121.349 378.215 122.319 377.882C123.289 377.548 124.116 376.889 124.662 376.015C125.208 375.141 125.441 374.105 125.321 373.079C124.7 368.043 124.389 362.974 124.389 357.899C124.389 292.845 175.243 239.922 237.767 239.922C300.291 239.922 351.134 292.845 351.134 357.899C351.139 362.943 350.831 367.982 350.213 372.988C350.097 374.012 350.332 375.046 350.879 375.918C351.427 376.789 352.253 377.445 353.222 377.777C354.191 378.11 355.243 378.097 356.204 377.743C357.165 377.389 357.977 376.715 358.505 375.831C371.462 354.181 378.457 329.439 378.769 304.157C379.08 278.874 372.697 253.966 360.277 231.998C347.857 210.031 329.85 191.799 308.111 179.184C286.373 166.568 261.69 160.024 236.607 160.227H236.596ZM239.417 126.714C333.823 127.643 410.849 205.125 411.998 300.24C412.143 311.895 411.141 323.536 409.007 334.992C408.803 336.05 408.982 337.147 409.512 338.085C410.041 339.022 410.886 339.737 411.893 340.102C412.9 340.466 414.003 340.455 415.003 340.071C416.003 339.687 416.833 338.954 417.344 338.007C433.53 308.108 442.068 274.613 442.185 240.552C442.674 126.955 350.827 33.7654 238.131 33.5246C125.196 33.2953 33.2355 125.843 33.2355 239.635C33.1941 273.993 41.7247 307.809 58.0427 337.973C58.554 338.918 59.3833 339.647 60.3811 340.031C61.3789 340.414 62.4798 340.425 63.4853 340.063C64.4908 339.701 65.3348 338.988 65.8655 338.054C66.3963 337.12 66.5788 336.026 66.3801 334.969C64.3839 324.24 63.3825 313.347 63.3887 302.43C63.4 204.953 142.542 125.774 239.428 126.714H239.417Z"
    fill="#F68561" />
</svg>