<svg width="1561" height="218" viewBox="0 0 1561 218" fill="black" xmlns="http://www.w3.org/2000/svg">
  <path
    d="M85.3596 217.31C36.1949 217.31 0 178.702 0 110.535C0 42.0665 38.3062 0.442383 95.0116 0.442383C140.255 0.442383 166.798 27.8902 173.434 65.8948L141.462 76.15C136.937 46.8925 119.745 31.5097 93.8051 31.5097C57.9118 31.5097 37.0998 62.5769 37.0998 109.027C37.0998 158.192 58.5151 186.846 93.2018 186.846C120.348 186.846 138.445 168.145 140.858 136.776V134.967H91.6937V107.217H174.339V212.786H147.193V172.971C139.652 198.006 119.745 217.31 85.3596 217.31Z" />
  <path
    d="M229.757 212.786H195.674V64.9899H229.154V105.408C237.901 78.2614 255.697 60.7672 282.542 60.7672C284.653 60.7672 286.463 60.7672 288.574 61.0688V96.3588C285.859 95.7556 283.145 95.7556 279.525 95.7556C249.363 95.7556 229.757 112.043 229.757 150.048V212.786Z" />
  <path
    d="M427.644 190.465C430.66 190.465 433.978 190.164 437.296 188.656V210.674C432.47 213.691 424.628 215.5 417.087 215.5C396.577 215.5 385.417 204.34 384.21 185.036C376.669 203.737 359.477 217.008 334.442 217.008C306.391 217.008 286.182 200.721 286.182 171.765C286.182 134.062 317.853 120.489 357.366 119.885C366.414 119.885 373.955 120.489 381.194 121.092V112.948C381.194 94.2475 372.145 83.9922 350.73 83.9922C333.236 83.9922 321.774 92.4377 320.567 107.821V110.535L288.294 105.106C289.802 78.563 315.138 60.4656 350.73 60.4656C391.751 60.4656 414.372 80.6744 414.372 118.076V173.575C414.372 186.544 418.595 190.465 427.644 190.465ZM345.602 191.672C367.017 191.672 381.194 176.892 381.194 151.858V141.301C376.368 140.999 371.24 140.698 365.509 140.698C337.458 141.301 319.964 148.841 319.964 169.352C319.964 183.227 329.616 191.672 345.602 191.672Z" />
  <path
    d="M525.957 61.6721C558.231 61.6721 575.725 84.2939 575.725 117.774V212.786H541.038V126.22C541.038 102.391 531.989 90.628 513.289 90.628C491.572 90.628 476.189 108.725 476.189 138.888V212.786H441.804V64.9899H475.284V99.6767C482.825 77.6581 500.319 61.6721 525.957 61.6721Z" />
  <path
    d="M610.317 90.9296H577.742V64.9899H610.317V20.9528H643.194V64.9899H680.596V90.9296H643.496V166.034C643.496 182.02 650.433 187.751 665.213 187.751C671.245 187.751 676.071 186.846 682.104 185.036V210.373C676.675 213.087 667.023 215.802 656.164 215.802C626.303 215.802 610.317 201.022 610.317 170.558V90.9296Z" />
  <path
    d="M683.268 173.273L713.43 164.827C716.446 181.115 729.416 193.482 749.022 193.482C768.024 193.482 777.676 185.036 777.676 174.178C777.676 163.319 771.945 158.493 753.848 153.667L729.718 147.032C703.175 140.396 689.602 125.315 689.602 104.201C689.602 77.3565 713.43 60.4656 747.212 60.4656C777.073 60.4656 799.695 75.2451 806.029 99.6767L776.771 107.519C774.057 95.4539 764.706 83.6906 745.704 83.6906C729.115 83.6906 720.368 90.628 720.368 100.28C720.368 110.535 727.305 114.758 743.593 119.282L769.231 126.22C797.885 133.76 809.95 149.143 809.95 169.955C809.95 199.213 785.82 217.008 748.419 217.008C711.922 217.008 688.395 198.911 683.268 173.273Z" />
  <path
    d="M864.07 156.08L862.562 152.461L893.931 141.904L894.836 146.73C900.567 175.384 916.553 188.053 942.492 188.053C966.019 188.053 979.291 176.591 979.291 160.001C979.291 142.507 968.734 134.665 946.112 126.22L922.887 118.377C895.741 108.725 870.404 92.7393 870.404 57.4493C870.404 20.0479 901.17 0.442383 940.079 0.442383C981.704 0.442383 1005.83 21.8577 1011.56 55.0363L1011.87 58.9574L979.894 67.1013L979.592 62.5769C976.274 41.1616 961.796 28.1918 939.175 28.1918C919.267 28.1918 904.488 36.6373 904.488 54.1315C904.488 71.0224 917.458 78.8646 934.952 84.8971L960.892 93.6442C993.467 104.804 1015.79 123.505 1015.79 156.985C1015.79 192.577 987.736 217.31 941.889 217.31C892.423 217.31 869.499 191.069 864.07 156.08Z" />
  <path
    d="M1045.73 90.9296H1013.15V64.9899H1045.73V20.9528H1078.6V64.9899H1116.01V90.9296H1078.91V166.034C1078.91 182.02 1085.84 187.751 1100.62 187.751C1106.66 187.751 1111.48 186.846 1117.51 185.036V210.373C1112.09 213.087 1102.43 215.802 1091.57 215.802C1061.71 215.802 1045.73 201.022 1045.73 170.558V90.9296Z" />
  <path
    d="M1264.06 190.465C1267.08 190.465 1270.4 190.164 1273.71 188.656V210.674C1268.89 213.691 1261.05 215.5 1253.5 215.5C1232.99 215.5 1221.83 204.34 1220.63 185.036C1213.09 203.737 1195.89 217.008 1170.86 217.008C1142.81 217.008 1122.6 200.721 1122.6 171.765C1122.6 134.062 1154.27 120.489 1193.78 119.885C1202.83 119.885 1210.37 120.489 1217.61 121.092V112.948C1217.61 94.2475 1208.56 83.9922 1187.15 83.9922C1169.65 83.9922 1158.19 92.4377 1156.98 107.821V110.535L1124.71 105.106C1126.22 78.563 1151.56 60.4656 1187.15 60.4656C1228.17 60.4656 1250.79 80.6744 1250.79 118.076V173.575C1250.79 186.544 1255.01 190.465 1264.06 190.465ZM1182.02 191.672C1203.43 191.672 1217.61 176.892 1217.61 151.858V141.301C1212.79 140.999 1207.66 140.698 1201.93 140.698C1173.88 141.301 1156.38 148.841 1156.38 169.352C1156.38 183.227 1166.03 191.672 1182.02 191.672Z" />
  <path
    d="M1340.07 216.405C1296.94 216.405 1269.79 185.338 1269.79 138.285C1269.79 89.1198 1300.56 60.4656 1341.88 60.4656C1375.36 60.4656 1395.87 78.563 1403.11 105.709L1372.64 114.456C1367.82 96.9621 1357.86 87.3101 1340.97 87.3101C1319.86 87.3101 1304.78 103.899 1304.78 139.189C1304.78 171.463 1318.65 189.561 1341.27 189.561C1358.17 189.561 1369.63 179.909 1375.06 160.001L1404.92 169.653C1396.77 197.101 1376.26 216.405 1340.07 216.405Z" />
  <path
    d="M1552.96 64.9899L1500.78 123.505L1560.2 212.786H1520.38L1476.35 144.92L1450.1 173.575V212.786H1415.72V108.725H1415.42V4.96676H1449.5V64.9899H1449.8V137.078L1513.14 64.9899H1552.96Z" />
</svg>