<svg width="2273" height="480" viewBox="0 0 2273 480" fill="black" xmlns="http://www.w3.org/2000/svg">
  <path
    d="M798.162 336.31C748.998 336.31 712.803 297.702 712.803 229.535C712.803 161.066 751.109 119.442 807.814 119.442C853.058 119.442 879.601 146.89 886.237 184.895L854.264 195.15C849.74 165.892 832.547 150.51 806.608 150.51C770.715 150.51 749.902 181.577 749.902 228.027C749.902 277.192 771.318 305.846 806.005 305.846C833.151 305.846 851.248 287.145 853.661 255.776V253.967H804.496V226.217H887.141V331.786H859.995V291.971C852.455 317.006 832.547 336.31 798.162 336.31Z" />
  <path
    d="M942.56 331.786H908.477V183.99H941.957V224.408C950.704 197.261 968.5 179.767 995.344 179.767C997.456 179.767 999.265 179.767 1001.38 180.069V215.359C998.662 214.756 995.948 214.756 992.328 214.756C962.166 214.756 942.56 231.043 942.56 269.048V331.786Z" />
  <path
    d="M1140.45 309.465C1143.46 309.465 1146.78 309.164 1150.1 307.656V329.674C1145.27 332.691 1137.43 334.5 1129.89 334.5C1109.38 334.5 1098.22 323.34 1097.01 304.036C1089.47 322.737 1072.28 336.008 1047.24 336.008C1019.19 336.008 998.985 319.721 998.985 290.765C998.985 253.062 1030.66 239.489 1070.17 238.885C1079.22 238.885 1086.76 239.489 1094 240.092V231.948C1094 213.247 1084.95 202.992 1063.53 202.992C1046.04 202.992 1034.58 211.438 1033.37 226.821V229.535L1001.1 224.106C1002.6 197.563 1027.94 179.466 1063.53 179.466C1104.55 179.466 1127.18 199.674 1127.18 237.076V292.575C1127.18 305.544 1131.4 309.465 1140.45 309.465ZM1058.4 310.672C1079.82 310.672 1094 295.892 1094 270.858V260.301C1089.17 259.999 1084.04 259.698 1078.31 259.698C1050.26 260.301 1032.77 267.841 1032.77 288.352C1032.77 302.227 1042.42 310.672 1058.4 310.672Z" />
  <path
    d="M1238.76 180.672C1271.03 180.672 1288.53 203.294 1288.53 236.774V331.786H1253.84V245.22C1253.84 221.391 1244.79 209.628 1226.09 209.628C1204.37 209.628 1188.99 227.725 1188.99 257.888V331.786H1154.61V183.99H1188.09V218.677C1195.63 196.658 1213.12 180.672 1238.76 180.672Z" />
  <path
    d="M1323.12 209.93H1290.54V183.99H1323.12V139.953H1356V183.99H1393.4V209.93H1356.3V285.034C1356.3 301.02 1363.24 306.751 1378.02 306.751C1384.05 306.751 1388.87 305.846 1394.91 304.036V329.373C1389.48 332.087 1379.83 334.802 1368.97 334.802C1339.11 334.802 1323.12 320.022 1323.12 289.558V209.93Z" />
  <path
    d="M1396.07 292.273L1426.23 283.827C1429.25 300.115 1442.22 312.482 1461.82 312.482C1480.83 312.482 1490.48 304.036 1490.48 293.178C1490.48 282.319 1484.75 277.493 1466.65 272.667L1442.52 266.032C1415.98 259.396 1402.4 244.315 1402.4 223.201C1402.4 196.356 1426.23 179.466 1460.01 179.466C1489.88 179.466 1512.5 194.245 1518.83 218.677L1489.57 226.519C1486.86 214.454 1477.51 202.691 1458.51 202.691C1441.92 202.691 1433.17 209.628 1433.17 219.28C1433.17 229.535 1440.11 233.758 1456.4 238.282L1482.03 245.22C1510.69 252.76 1522.75 268.143 1522.75 288.955C1522.75 318.213 1498.62 336.008 1461.22 336.008C1424.72 336.008 1401.2 317.911 1396.07 292.273Z" />
  <path
    d="M1576.87 275.08L1575.36 271.461L1606.73 260.904L1607.64 265.73C1613.37 294.384 1629.36 307.053 1655.3 307.053C1678.82 307.053 1692.09 295.591 1692.09 279.001C1692.09 261.507 1681.54 253.665 1658.91 245.22L1635.69 237.377C1608.54 227.725 1583.21 211.739 1583.21 176.449C1583.21 139.048 1613.97 119.442 1652.88 119.442C1694.51 119.442 1718.64 140.858 1724.37 174.036L1724.67 177.957L1692.7 186.101L1692.39 181.577C1689.08 160.162 1674.6 147.192 1651.98 147.192C1632.07 147.192 1617.29 155.637 1617.29 173.131C1617.29 190.022 1630.26 197.865 1647.75 203.897L1673.69 212.644C1706.27 223.804 1728.59 242.505 1728.59 275.985C1728.59 311.577 1700.54 336.31 1654.69 336.31C1605.23 336.31 1582.3 310.069 1576.87 275.08Z" />
  <path
    d="M1758.53 209.93H1725.96V183.99H1758.53V139.953H1791.41V183.99H1828.81V209.93H1791.71V285.034C1791.71 301.02 1798.65 306.751 1813.43 306.751C1819.46 306.751 1824.28 305.846 1830.32 304.036V329.373C1824.89 332.087 1815.24 334.802 1804.38 334.802C1774.52 334.802 1758.53 320.022 1758.53 289.558V209.93Z" />
  <path
    d="M1976.86 309.465C1979.88 309.465 1983.2 309.164 1986.52 307.656V329.674C1981.69 332.691 1973.85 334.5 1966.31 334.5C1945.8 334.5 1934.64 323.34 1933.43 304.036C1925.89 322.737 1908.7 336.008 1883.66 336.008C1855.61 336.008 1835.4 319.721 1835.4 290.765C1835.4 253.062 1867.07 239.489 1906.59 238.885C1915.63 238.885 1923.18 239.489 1930.41 240.092V231.948C1930.41 213.247 1921.37 202.992 1899.95 202.992C1882.46 202.992 1870.99 211.438 1869.79 226.821V229.535L1837.51 224.106C1839.02 197.563 1864.36 179.466 1899.95 179.466C1940.97 179.466 1963.59 199.674 1963.59 237.076V292.575C1963.59 305.544 1967.82 309.465 1976.86 309.465ZM1894.82 310.672C1916.24 310.672 1930.41 295.892 1930.41 270.858V260.301C1925.59 259.999 1920.46 259.698 1914.73 259.698C1886.68 260.301 1869.18 267.841 1869.18 288.352C1869.18 302.227 1878.84 310.672 1894.82 310.672Z" />
  <path
    d="M2052.87 335.405C2009.74 335.405 1982.59 304.338 1982.59 257.285C1982.59 208.12 2013.36 179.466 2054.68 179.466C2088.16 179.466 2108.67 197.563 2115.91 224.709L2085.45 233.456C2080.62 215.962 2070.67 206.31 2053.78 206.31C2032.66 206.31 2017.58 222.899 2017.58 258.189C2017.58 290.463 2031.46 308.561 2054.08 308.561C2070.97 308.561 2082.43 298.909 2087.86 279.001L2117.72 288.653C2109.58 316.101 2089.07 335.405 2052.87 335.405Z" />
  <path
    d="M2265.76 183.99L2213.58 242.505L2273 331.786H2233.19L2189.15 263.92L2162.91 292.575V331.786H2128.52V227.725H2128.22V123.967H2162.3V183.99H2162.61V256.078L2225.95 183.99H2265.76Z" />
  <path
    d="M612.161 199.334L456.829 18.3315C452.122 12.6015 446.214 7.98763 439.526 4.82064C432.839 1.65365 425.539 0.0117549 418.147 0.0117549C410.755 0.0117549 403.455 1.65365 396.768 4.82064C390.081 7.98763 384.172 12.6015 379.465 18.3315L365.52 34.5869L351.564 18.3315C346.857 12.6035 340.949 7.99142 334.263 4.82568C327.577 1.65994 320.278 0.018472 312.888 0.018472C305.497 0.018472 298.198 1.65994 291.512 4.82568C284.826 7.99142 278.919 12.6035 274.211 18.3315L260.723 34.0367L247.234 18.3198C242.527 12.5897 236.618 7.97644 229.931 4.80945C223.244 1.64246 215.944 0 208.552 0C201.16 0 193.86 1.64246 187.173 4.80945C180.485 7.97644 174.577 12.5897 169.87 18.3198L14.5378 199.334C-4.84593 221.918 -4.84593 257.319 14.5378 279.902L169.87 460.905C174.627 466.58 180.545 471.157 187.222 474.323C193.899 477.488 201.176 479.168 208.558 479.247C215.937 479.166 223.212 477.485 229.887 474.32C236.561 471.155 242.478 466.579 247.234 460.905L260.723 445.188L274.2 460.905C278.907 466.635 284.816 471.249 291.503 474.416C298.19 477.583 305.49 479.225 312.882 479.225C320.274 479.225 327.574 477.583 334.261 474.416C340.948 471.249 346.857 466.635 351.564 460.905L365.52 444.649L379.465 460.905C384.222 466.58 390.141 471.157 396.817 474.323C403.494 477.488 410.771 479.168 418.153 479.247C425.532 479.166 432.807 477.485 439.482 474.32C446.157 471.155 452.074 466.579 456.829 460.905L612.161 279.902C631.556 257.319 631.556 221.918 612.161 199.334ZM306.343 46.2226C307.06 45.1397 308.032 44.2519 309.173 43.6377C310.314 43.0234 311.588 42.7018 312.882 42.7018C314.176 42.7018 315.45 43.0234 316.591 43.6377C317.732 44.2519 318.704 45.1397 319.421 46.2226L333.355 62.4445C334.503 63.7829 335.135 65.4913 335.135 67.2589C335.135 69.0266 334.503 70.7355 333.355 72.074L318.897 88.9143C318.208 89.715 317.357 90.3571 316.4 90.7974C315.442 91.2376 314.402 91.4657 313.35 91.4657C312.297 91.4657 311.257 91.2376 310.299 90.7974C309.342 90.3571 308.491 89.715 307.802 88.9143L292.888 71.5237C291.741 70.1871 291.109 68.48 291.109 66.7143C291.109 64.9486 291.741 63.242 292.888 61.9054L306.343 46.2226ZM224.133 279.902L281.144 346.393C282.292 347.731 282.924 349.44 282.924 351.207C282.924 352.975 282.292 354.684 281.144 356.022L266.219 373.402C265.531 374.202 264.681 374.844 263.724 375.284C262.768 375.724 261.729 375.952 260.677 375.952C259.625 375.952 258.586 375.724 257.63 375.284C256.673 374.844 255.823 374.202 255.136 373.402L151.011 252.022C145.446 245.533 145.446 233.68 151.011 227.214L255.181 105.846C255.868 105.046 256.719 104.404 257.675 103.963C258.632 103.523 259.671 103.296 260.723 103.296C261.774 103.296 262.814 103.523 263.77 103.963C264.726 104.404 265.577 105.046 266.264 105.846L281.19 123.237C282.337 124.574 282.969 126.28 282.969 128.046C282.969 129.812 282.337 131.519 281.19 132.855L224.179 199.346C204.749 221.918 204.749 257.319 224.133 279.902ZM256.276 252.022C250.712 245.533 250.712 233.68 256.276 227.214L307.802 167.166C308.491 166.366 309.342 165.724 310.299 165.283C311.257 164.843 312.297 164.615 313.35 164.615C314.402 164.615 315.442 164.843 316.4 165.283C317.357 165.724 318.208 166.366 318.897 167.166L370.423 227.214C373.465 230.373 375.237 234.551 375.399 238.945C375.561 243.338 374.101 247.636 371.301 251.013L318.851 312.07C318.163 312.871 317.311 313.513 316.354 313.953C315.397 314.393 314.357 314.621 313.304 314.621C312.251 314.621 311.211 314.393 310.254 313.953C309.297 313.513 308.445 312.871 307.757 312.07L256.276 252.022ZM402.566 279.902C421.95 257.319 421.95 221.918 402.566 199.334L345.555 132.844C344.407 131.507 343.776 129.8 343.776 128.035C343.776 126.269 344.407 124.562 345.555 123.226L360.002 106.374C360.69 105.573 361.542 104.93 362.499 104.49C363.456 104.05 364.496 103.822 365.549 103.822C366.601 103.822 367.642 104.05 368.599 104.49C369.556 104.93 370.408 105.573 371.096 106.374L474.856 227.203C477.893 230.364 479.662 234.543 479.822 238.935C479.982 243.328 478.522 247.626 475.723 251.002L371.062 372.886C370.373 373.686 369.522 374.328 368.565 374.769C367.607 375.209 366.567 375.437 365.515 375.437C364.462 375.437 363.422 375.209 362.465 374.769C361.507 374.328 360.656 373.686 359.967 372.886L345.521 356.045C344.372 354.707 343.741 352.998 343.741 351.23C343.741 349.463 344.372 347.754 345.521 346.416L402.566 279.902ZM215.091 433.014C214.374 434.097 213.402 434.984 212.261 435.599C211.12 436.213 209.846 436.535 208.552 436.535C207.258 436.535 205.984 436.213 204.843 435.599C203.702 434.984 202.73 434.097 202.013 433.014L46.6806 252.022C41.1163 245.533 41.1163 233.68 46.6806 227.214L201.979 46.2226C202.697 45.1397 203.67 44.2518 204.812 43.6377C205.954 43.0236 207.229 42.7023 208.523 42.7023C209.818 42.7023 211.093 43.0236 212.235 43.6377C213.376 44.2518 214.35 45.1397 215.068 46.2226L228.523 61.9054C229.67 63.242 230.302 64.9486 230.302 66.7143C230.302 68.48 229.67 70.1871 228.523 71.5237L118.834 199.334C99.45 221.918 99.45 257.319 118.834 279.902L228.523 407.713C229.67 409.049 230.302 410.756 230.302 412.522C230.302 414.288 229.67 415.994 228.523 417.331L215.091 433.014ZM319.421 433.014C318.702 434.094 317.729 434.98 316.589 435.593C315.448 436.205 314.175 436.525 312.882 436.525C311.589 436.525 310.316 436.205 309.175 435.593C308.035 434.98 307.062 434.094 306.343 433.014L292.888 417.331C291.741 415.994 291.109 414.288 291.109 412.522C291.109 410.756 291.741 409.049 292.888 407.713L307.802 390.322C308.491 389.521 309.342 388.879 310.299 388.439C311.257 387.999 312.297 387.771 313.35 387.771C314.402 387.771 315.442 387.999 316.4 388.439C317.357 388.879 318.208 389.521 318.897 390.322L333.355 407.162C334.503 408.501 335.135 410.21 335.135 411.977C335.135 413.745 334.503 415.453 333.355 416.792L319.421 433.014ZM580.03 252.011L424.686 433.014C423.969 434.097 422.997 434.984 421.856 435.599C420.715 436.213 419.441 436.535 418.147 436.535C416.853 436.535 415.579 436.213 414.438 435.599C413.297 434.984 412.325 434.097 411.608 433.014L397.686 416.792C396.538 415.453 395.906 413.745 395.906 411.977C395.906 410.21 396.538 408.501 397.686 407.162L506.896 279.914C526.28 257.33 526.28 221.93 506.896 199.346L397.686 72.0969C396.538 70.7585 395.906 69.0495 395.906 67.2819C395.906 65.5143 396.538 63.8058 397.686 62.4674L411.608 46.2456C412.327 45.1626 413.3 44.2747 414.441 43.6606C415.583 43.0465 416.858 42.7253 418.153 42.7253C419.448 42.7253 420.722 43.0465 421.864 43.6606C423.006 44.2747 423.979 45.1626 424.698 46.2456L580.03 227.237C585.594 233.703 585.594 245.533 580.03 252.022V252.011Z" />
</svg>