<svg width="480" height="480" viewBox="0 0 480 480" fill="#25BDCE" xmlns="http://www.w3.org/2000/svg">
  <path
    d="M125.52 421.97C108.422 421.971 91.4197 419.42 75.0746 414.403C72.5749 413.634 70.301 412.266 68.4507 410.418C66.6004 408.569 65.2298 406.297 64.4581 403.798C54.0621 369.728 54.4288 333.28 65.5083 299.426C76.5878 265.572 97.8407 235.96 126.368 214.628L152.795 194.932C169.289 182.633 183.914 168.009 196.212 151.515L216.161 124.744C237.22 96.4015 266.707 75.449 300.401 64.8865C334.094 54.3239 370.266 54.693 403.737 65.9411C406.101 66.7342 408.247 68.0674 410.007 69.8346C411.766 71.6017 413.089 73.7542 413.872 76.1218C424.837 109.345 425.062 145.178 414.516 178.537C403.969 211.895 383.186 241.085 355.114 261.967L327.45 282.603C310.894 294.939 296.219 309.614 283.884 326.17L264.267 352.482C248.138 374.057 227.198 391.572 203.112 403.635C179.026 415.697 152.458 421.976 125.52 421.97ZM92.8106 386.062C119.604 392.472 147.689 390.893 173.595 381.521C199.502 372.149 222.096 355.393 238.586 333.324L258.202 306.955C272.397 287.907 289.281 271.019 308.326 256.819L336.003 236.183C357.564 220.143 373.829 198.014 382.701 172.648C391.574 147.282 392.647 119.84 385.783 93.8581C359.557 86.7672 331.804 87.7364 306.137 96.6398C280.47 105.543 258.078 121.968 241.876 143.776L221.916 170.558C207.771 189.542 190.94 206.369 171.952 220.51L145.583 240.206C123.493 256.699 106.722 279.304 97.3423 305.227C87.963 331.15 86.3874 359.253 92.8106 386.062Z" />
  <path
    d="M350.872 422.369C324.906 422.363 299.301 416.287 276.1 404.626C252.9 392.965 232.747 376.043 217.249 355.208L196.613 327.544C184.271 310.994 169.596 296.32 153.046 283.978L126.735 264.361C98.2072 243.029 76.9543 213.417 65.8748 179.563C54.7953 145.709 54.4285 109.261 64.8246 75.1913C65.5963 72.6924 66.9669 70.4204 68.8171 68.5721C70.6674 66.7239 72.9414 65.3553 75.441 64.5863C109.511 54.1903 145.959 54.557 179.813 65.6365C213.667 76.716 243.279 97.9689 264.611 126.496L284.307 152.865C296.599 169.365 311.225 183.991 327.725 196.283L354.495 216.232C382.844 237.299 403.799 266.798 414.357 300.502C424.916 334.207 424.537 370.389 413.275 403.865C412.482 406.229 411.149 408.376 409.382 410.135C407.615 411.894 405.462 413.217 403.094 414C386.243 419.548 368.614 422.374 350.872 422.369ZM93.1771 92.8817C86.7671 119.675 88.3459 147.76 97.7182 173.666C107.091 199.573 123.846 222.166 145.915 238.657L172.227 258.273C191.278 272.469 208.166 289.358 222.363 308.409L242.999 336.074C259.038 357.636 281.166 373.902 306.533 382.777C331.899 391.651 359.341 392.726 385.324 385.865C392.417 359.638 391.449 331.882 382.546 306.213C373.642 280.544 357.216 258.15 335.406 241.947L308.624 221.987C289.642 207.843 272.816 191.017 258.672 172.035L238.975 145.609C222.482 123.537 199.883 106.781 173.972 97.4105C148.061 88.04 119.973 86.4656 93.1771 92.8817Z" />
  <path
    d="M339.233 330.605C327.268 330.608 315.343 329.234 303.692 326.512L276.612 320.172C251.249 314.279 224.873 314.279 199.511 320.172L171.995 326.593C138.7 334.362 103.755 330.649 72.8361 316.055C41.917 301.461 16.8388 276.844 1.67382 246.201C0.572783 243.983 0 241.541 0 239.064C0 236.588 0.572783 234.145 1.67382 231.927C16.8513 201.633 41.7887 177.333 72.4655 162.944C103.142 148.555 137.771 144.916 170.769 152.614L199.499 159.321C224.862 165.214 251.238 165.214 276.6 159.321L303.772 152.981C337.404 145.13 372.691 148.657 404.104 163.01C435.517 177.362 461.281 201.73 477.361 232.295C478.566 234.594 479.196 237.151 479.196 239.747C479.196 242.343 478.566 244.9 477.361 247.199C464.117 272.363 444.251 293.432 419.908 308.131C395.565 322.83 367.67 330.601 339.233 330.605ZM238.021 283.726C253.458 283.718 268.845 285.48 283.881 288.977L311.052 295.316C336.351 301.222 362.864 299.035 386.853 289.065C410.842 279.095 431.095 261.844 444.755 239.747C431.094 217.639 410.833 200.382 386.835 190.411C362.836 180.44 336.311 178.259 311.006 184.176L283.835 190.517C253.683 197.522 222.326 197.522 192.174 190.517L163.443 183.81C138.81 177.988 112.959 180.22 89.6879 190.176C66.417 200.133 46.9526 217.29 34.1538 239.128C47.0218 261.232 66.6397 278.627 90.1254 288.757C113.611 298.887 139.726 301.218 164.635 295.408L192.151 288.977C207.19 285.48 222.581 283.718 238.021 283.726Z" />
  <path
    d="M239.457 479.247C236.874 479.245 234.33 478.62 232.04 477.424C201.115 461.25 176.213 435.559 161.01 404.146C145.807 372.732 141.11 337.263 147.613 302.975L153.918 269.727C157.897 248.85 157.897 227.41 153.918 206.533L147.544 172.907C141.172 138.943 146.078 103.828 161.514 72.9114C176.951 41.9947 202.072 16.9723 233.049 1.65703C235.258 0.567031 237.688 0 240.151 0C242.614 0 245.044 0.567031 247.253 1.65703C277.929 16.9225 302.776 41.7943 318.011 72.4853C333.246 103.176 338.034 138.005 331.646 171.669L325.042 206.499C321.064 227.376 321.064 248.816 325.042 269.693L331.348 302.941C337.853 337.23 333.158 372.703 317.955 404.118C302.752 435.534 277.848 461.227 246.921 477.401C244.62 478.612 242.058 479.245 239.457 479.247ZM240.065 34.1941C217.399 47.2676 199.351 67.0569 188.415 90.8285C177.479 114.6 174.195 141.181 179.015 166.899L185.389 200.526C190.124 225.345 190.124 250.835 185.389 275.655L179.084 308.903C174.139 335.009 177.268 362.002 188.054 386.285C198.84 410.567 216.772 430.986 239.457 444.818C262.151 430.993 280.089 410.576 290.878 386.292C301.668 362.007 304.795 335.01 299.843 308.903L293.537 275.655C288.802 250.835 288.802 225.345 293.537 200.526L300.141 165.707C304.894 140.268 301.673 113.981 290.92 90.4411C280.167 66.9012 262.406 47.257 240.065 34.1941Z" />
</svg>