<svg width="997" height="268" viewBox="0 0 997 268" fill="black" xmlns="http://www.w3.org/2000/svg">
  <path
    d="M144.176 208.786H0V0.967285H139.35V32.3362H35.5916V88.7399H123.967V119.204H35.5916V177.417H144.176V208.786Z" />
  <path
    d="M176.719 208.786H138.714L195.721 132.475L145.35 60.9905H185.466L217.136 110.457L249.41 60.9905H286.208L236.139 130.967L292.844 208.786H251.521L214.422 154.192L176.719 208.786Z" />
  <path
    d="M379.676 57.6726C414.061 57.6726 439.096 84.5171 439.096 134.587C439.096 182.847 413.76 212.406 377.867 212.406C353.133 212.406 337.449 198.531 329.908 181.037V267.603H295.523V60.9905H329.003V91.1529C336.846 71.8489 354.34 57.6726 379.676 57.6726ZM367.008 187.069C389.931 187.069 404.108 168.369 404.108 135.492C404.108 101.71 390.535 83.009 367.31 83.009C343.783 83.009 329.305 104.123 329.305 134.888C329.305 167.464 344.085 187.069 367.008 187.069Z" />
  <path d="M488.32 208.786H453.935V0.967285H488.32V208.786Z" />
  <path
    d="M573.771 212.104C533.052 212.104 502.588 183.148 502.588 134.285C502.588 85.7236 533.354 56.4661 573.771 56.4661C614.49 56.4661 645.558 86.0252 645.558 134.285C645.558 183.45 614.49 212.104 573.771 212.104ZM573.771 185.561C596.393 185.561 610.268 167.765 610.268 134.285C610.268 101.106 596.393 83.3106 573.771 83.3106C551.451 83.3106 537.576 100.805 537.576 134.285C537.576 167.765 551.451 185.561 573.771 185.561Z" />
  <path
    d="M694.089 208.786H660.005V60.9905H693.485V101.408C702.232 74.2619 720.028 56.7677 746.873 56.7677C748.984 56.7677 750.794 56.7677 752.905 57.0693V92.3594C750.191 91.7561 747.476 91.7561 743.857 91.7561C713.694 91.7561 694.089 108.044 694.089 146.048V208.786Z" />
  <path
    d="M888.664 135.492V141.524H782.794C783.699 167.765 796.367 185.863 822.307 185.863C841.008 185.863 853.073 175.004 859.708 157.51L888.061 169.273C879.012 192.499 856.994 212.104 821.101 212.104C774.651 212.104 749.012 181.338 749.012 134.285C749.012 85.1204 779.778 56.4661 820.196 56.4661C863.931 56.4661 888.664 87.2317 888.664 135.492ZM819.894 81.8025C799.384 81.8025 786.112 95.074 783.699 117.997H854.279C853.073 93.8675 839.801 81.8025 819.894 81.8025Z" />
  <path
    d="M937.568 208.786H903.484V60.9905H936.964V101.408C945.711 74.2619 963.507 56.7677 990.352 56.7677C992.463 56.7677 994.273 56.7677 996.384 57.0693V92.3594C993.669 91.7561 990.955 91.7561 987.335 91.7561C957.173 91.7561 937.568 108.044 937.568 146.048V208.786Z" />
</svg>