<svg width="1579" height="480" viewBox="0 0 1579 480" fill="black" xmlns="http://www.w3.org/2000/svg">
  <path
    d="M726.472 331.786H582.296V123.967H721.646V155.336H617.888V211.739H706.263V242.203H617.888V300.417H726.472V331.786Z" />
  <path
    d="M759.015 331.786H721.01L778.017 255.475L727.646 183.99H767.762L799.432 233.456L831.706 183.99H868.504L818.434 253.967L875.14 331.786H833.817L796.718 277.192L759.015 331.786Z" />
  <path
    d="M961.972 180.672C996.357 180.672 1021.39 207.517 1021.39 257.586C1021.39 305.846 996.056 335.405 960.162 335.405C935.429 335.405 919.745 321.531 912.204 304.036V390.602H877.819V183.99H911.299V214.152C919.142 194.848 936.636 180.672 961.972 180.672ZM949.304 310.069C972.227 310.069 986.404 291.368 986.404 258.491C986.404 224.709 972.831 206.009 949.606 206.009C926.079 206.009 911.601 227.122 911.601 257.888C911.601 290.463 926.381 310.069 949.304 310.069Z" />
  <path d="M1070.62 331.786H1036.23V123.967H1070.62V331.786Z" />
  <path
    d="M1156.07 335.104C1115.35 335.104 1084.88 306.148 1084.88 257.285C1084.88 208.723 1115.65 179.466 1156.07 179.466C1196.79 179.466 1227.85 209.025 1227.85 257.285C1227.85 306.449 1196.79 335.104 1156.07 335.104ZM1156.07 308.561C1178.69 308.561 1192.56 290.765 1192.56 257.285C1192.56 224.106 1178.69 206.31 1156.07 206.31C1133.75 206.31 1119.87 223.804 1119.87 257.285C1119.87 290.765 1133.75 308.561 1156.07 308.561Z" />
  <path
    d="M1276.38 331.786H1242.3V183.99H1275.78V224.408C1284.53 197.261 1302.32 179.767 1329.17 179.767C1331.28 179.767 1333.09 179.767 1335.2 180.069V215.359C1332.49 214.756 1329.77 214.756 1326.15 214.756C1295.99 214.756 1276.38 231.043 1276.38 269.048V331.786Z" />
  <path
    d="M1470.96 258.491V264.524H1365.09C1366 290.765 1378.66 308.862 1404.6 308.862C1423.3 308.862 1435.37 298.004 1442 280.51L1470.36 292.273C1461.31 315.498 1439.29 335.104 1403.4 335.104C1356.95 335.104 1331.31 304.338 1331.31 257.285C1331.31 208.12 1362.07 179.466 1402.49 179.466C1446.23 179.466 1470.96 210.231 1470.96 258.491ZM1402.19 204.802C1381.68 204.802 1368.41 218.073 1366 240.997H1436.58C1435.37 216.867 1422.1 204.802 1402.19 204.802Z" />
  <path
    d="M1519.86 331.786H1485.78V183.99H1519.26V224.408C1528.01 197.261 1545.8 179.767 1572.65 179.767C1574.76 179.767 1576.57 179.767 1578.68 180.069V215.359C1575.97 214.756 1573.25 214.756 1569.63 214.756C1539.47 214.756 1519.86 231.043 1519.86 269.048V331.786Z" />
  <path
    d="M125.52 421.969C108.422 421.97 91.4197 419.42 75.0746 414.402C72.5749 413.633 70.301 412.265 68.4507 410.417C66.6004 408.569 65.2298 406.296 64.4581 403.797C54.0621 369.727 54.4288 333.28 65.5083 299.426C76.5878 265.572 97.8407 235.959 126.368 214.628L152.795 194.931C169.289 182.633 183.914 168.009 196.212 151.514L216.161 124.744C237.22 96.401 266.707 75.4485 300.401 64.886C334.094 54.3234 370.266 54.6925 403.737 65.9406C406.101 66.7337 408.247 68.0669 410.007 69.8341C411.766 71.6013 413.089 73.7537 413.872 76.1213C424.837 109.345 425.062 145.178 414.516 178.536C403.969 211.895 383.186 241.085 355.114 261.966L327.45 282.603C310.894 294.938 296.219 309.614 283.884 326.169L264.267 352.481C248.138 374.056 227.198 391.571 203.112 403.634C179.026 415.697 152.458 421.975 125.52 421.969ZM92.8106 386.062C119.604 392.472 147.689 390.893 173.595 381.521C199.502 372.148 222.096 355.393 238.586 333.324L258.202 306.954C272.397 287.906 289.281 271.018 308.326 256.819L336.003 236.182C357.564 220.143 373.829 198.014 382.701 172.647C391.574 147.281 392.647 119.839 385.783 93.8576C359.557 86.7667 331.804 87.7359 306.137 96.6393C280.47 105.543 258.078 121.968 241.876 143.775L221.916 170.557C207.771 189.542 190.94 206.368 171.952 220.509L145.583 240.206C123.493 256.698 106.722 279.303 97.3423 305.226C87.963 331.149 86.3874 359.253 92.8106 386.062Z"
    fill="#25BDCE" />
  <path
    d="M350.872 422.369C324.906 422.363 299.301 416.287 276.1 404.626C252.9 392.965 232.747 376.042 217.249 355.208L196.613 327.543C184.271 310.994 169.596 296.319 153.046 283.977L126.735 264.36C98.2072 243.029 76.9543 213.417 65.8748 179.563C54.7953 145.709 54.4285 109.261 64.8246 75.1908C65.5963 72.692 66.9669 70.4199 68.8171 68.5716C70.6674 66.7234 72.9414 65.3548 75.441 64.5858C109.511 54.1898 145.959 54.5565 179.813 65.636C213.667 76.7155 243.279 97.9684 264.611 126.496L284.307 152.865C296.599 169.365 311.225 183.99 327.725 196.282L354.495 216.231C382.844 237.298 403.799 266.797 414.357 300.502C424.916 334.207 424.537 370.388 413.275 403.865C412.482 406.229 411.149 408.375 409.382 410.134C407.615 411.894 405.462 413.217 403.094 413.999C386.243 419.548 368.614 422.373 350.872 422.369ZM93.1771 92.8812C86.7671 119.675 88.3459 147.759 97.7182 173.666C107.091 199.572 123.846 222.166 145.915 238.656L172.227 258.272C191.278 272.469 208.166 289.357 222.363 308.409L242.999 336.073C259.038 357.636 281.166 373.902 306.533 382.776C331.899 391.65 359.341 392.726 385.324 385.865C392.417 359.637 391.449 331.882 382.546 306.213C373.642 280.543 357.216 258.149 335.406 241.947L308.624 221.986C289.642 207.843 272.816 191.016 258.672 172.034L238.975 145.608C222.482 123.537 199.883 106.781 173.972 97.41C148.061 88.0395 119.973 86.4651 93.1771 92.8812Z"
    fill="#25BDCE" />
  <path
    d="M339.233 330.606C327.268 330.609 315.343 329.235 303.692 326.513L276.612 320.173C251.249 314.28 224.873 314.28 199.511 320.173L171.995 326.593C138.7 334.363 103.755 330.649 72.8361 316.055C41.917 301.462 16.8388 276.845 1.67382 246.202C0.572783 243.984 0 241.541 0 239.065C0 236.589 0.572783 234.146 1.67382 231.928C16.8513 201.633 41.7887 177.333 72.4655 162.944C103.142 148.555 137.771 144.917 170.769 152.615L199.499 159.322C224.862 165.215 251.238 165.215 276.6 159.322L303.772 152.981C337.404 145.13 372.691 148.657 404.104 163.01C435.517 177.363 461.281 201.73 477.361 232.295C478.566 234.594 479.196 237.151 479.196 239.747C479.196 242.343 478.566 244.9 477.361 247.199C464.117 272.364 444.251 293.432 419.908 308.131C395.565 322.831 367.67 330.602 339.233 330.606ZM238.021 283.726C253.458 283.719 268.845 285.481 283.881 288.977L311.052 295.317C336.351 301.222 362.864 299.036 386.853 289.066C410.842 279.095 431.095 261.844 444.755 239.747C431.094 217.64 410.833 200.383 386.835 190.412C362.836 180.44 336.311 178.259 311.006 184.177L283.835 190.517C253.683 197.522 222.326 197.522 192.174 190.517L163.443 183.81C138.81 177.989 112.959 180.22 89.6879 190.177C66.417 200.134 46.9526 217.291 34.1538 239.128C47.0218 261.233 66.6397 278.628 90.1254 288.758C113.611 298.888 139.726 301.219 164.635 295.409L192.151 288.977C207.19 285.48 222.581 283.718 238.021 283.726Z"
    fill="#25BDCE" />
  <path
    d="M239.457 479.247C236.874 479.245 234.33 478.62 232.04 477.424C201.115 461.25 176.213 435.559 161.01 404.146C145.807 372.732 141.11 337.263 147.613 302.975L153.918 269.727C157.897 248.85 157.897 227.41 153.918 206.533L147.544 172.907C141.172 138.943 146.078 103.828 161.514 72.9114C176.951 41.9947 202.072 16.9723 233.049 1.65703C235.258 0.567031 237.688 0 240.151 0C242.614 0 245.044 0.567031 247.253 1.65703C277.929 16.9225 302.776 41.7943 318.011 72.4853C333.246 103.176 338.034 138.005 331.646 171.669L325.042 206.499C321.064 227.376 321.064 248.816 325.042 269.693L331.348 302.941C337.853 337.23 333.158 372.703 317.955 404.118C302.752 435.534 277.848 461.227 246.921 477.401C244.62 478.612 242.058 479.245 239.457 479.247ZM240.065 34.1941C217.399 47.2676 199.351 67.0569 188.415 90.8285C177.479 114.6 174.195 141.181 179.015 166.899L185.389 200.526C190.124 225.345 190.124 250.835 185.389 275.655L179.084 308.903C174.139 335.009 177.268 362.002 188.054 386.285C198.84 410.567 216.772 430.986 239.457 444.818C262.151 430.993 280.089 410.576 290.878 386.292C301.668 362.007 304.795 335.01 299.843 308.903L293.537 275.655C288.802 250.835 288.802 225.345 293.537 200.526L300.141 165.707C304.894 140.268 301.673 113.981 290.92 90.4411C280.167 66.9012 262.406 47.257 240.065 34.1941Z"
    fill="#25BDCE" />
</svg>