<svg width="124" height="23" viewBox="0 0 124 23" fill="black" xmlns="http://www.w3.org/2000/svg">
  <path
    d="M0.495408 0.699999H6.63941C7.77541 0.699999 8.75941 0.915999 9.59141 1.348C10.4234 1.78 11.0474 2.38 11.4634 3.148C11.8954 3.9 12.1114 4.748 12.1114 5.692C12.1114 6.956 11.7994 7.996 11.1754 8.812C10.5674 9.628 9.78341 10.196 8.82341 10.516L12.8314 17.5H9.59141L5.91941 10.924H3.42341V17.5H0.495408V0.699999ZM6.44741 8.356C7.31141 8.356 7.98341 8.132 8.46341 7.684C8.95941 7.22 9.20741 6.604 9.20741 5.836C9.20741 5.052 8.95941 4.444 8.46341 4.012C7.96741 3.564 7.27941 3.34 6.39941 3.34H3.42341V8.356H6.44741ZM14.7042 12.46C14.7522 12.972 14.9202 13.46 15.2082 13.924C15.4962 14.388 15.8802 14.764 16.3602 15.052C16.8562 15.324 17.4082 15.46 18.0162 15.46C18.7842 15.46 19.4162 15.276 19.9122 14.908C20.4242 14.54 20.7682 14.116 20.9442 13.636L23.3682 14.38C23.0002 15.404 22.3602 16.236 21.4482 16.876C20.5522 17.516 19.4082 17.836 18.0162 17.836C16.8802 17.836 15.8482 17.564 14.9202 17.02C14.0082 16.476 13.2802 15.724 12.7362 14.764C12.2082 13.804 11.9442 12.716 11.9442 11.5C11.9442 10.316 12.2082 9.244 12.7362 8.284C13.2802 7.324 14.0082 6.572 14.9202 6.028C15.8482 5.468 16.8722 5.188 17.9922 5.188C19.1282 5.188 20.1202 5.452 20.9682 5.98C21.8322 6.492 22.4962 7.212 22.9602 8.14C23.4242 9.068 23.6562 10.14 23.6562 11.356V12.46H14.7042ZM21.1122 10.252C21.0802 9.852 20.9442 9.444 20.7042 9.028C20.4642 8.612 20.1122 8.268 19.6482 7.996C19.2002 7.708 18.6562 7.564 18.0162 7.564C17.1042 7.564 16.3602 7.828 15.7842 8.356C15.2242 8.868 14.8722 9.5 14.7282 10.252H21.1122ZM28.5927 17.836C27.6167 17.836 26.8087 17.532 26.1687 16.924C25.5287 16.3 25.2087 15.42 25.2087 14.284V8.044H23.1447V5.524H25.2087V2.404H28.0887V5.524H31.1367V8.044H28.0887V13.876C28.0887 14.724 28.4647 15.148 29.2167 15.148C29.6487 15.148 30.0167 15.012 30.3207 14.74L31.5207 16.78C31.2967 17.052 30.9367 17.292 30.4407 17.5C29.9447 17.724 29.3287 17.836 28.5927 17.836ZM31.659 5.524H34.035L34.443 6.916C34.731 6.42 35.131 6.012 35.643 5.692C36.155 5.356 36.763 5.188 37.467 5.188C37.915 5.188 38.315 5.244 38.667 5.356C39.019 5.468 39.307 5.604 39.531 5.764L38.499 8.284C38.355 8.172 38.155 8.076 37.899 7.996C37.659 7.916 37.379 7.876 37.059 7.876C36.339 7.876 35.739 8.156 35.259 8.716C34.779 9.26 34.539 10.012 34.539 10.972V17.5H31.659V5.524ZM44.503 17.836C43.319 17.836 42.255 17.556 41.311 16.996C40.367 16.436 39.623 15.676 39.079 14.716C38.551 13.74 38.287 12.668 38.287 11.5C38.287 10.332 38.551 9.268 39.079 8.308C39.623 7.348 40.367 6.588 41.311 6.028C42.271 5.468 43.335 5.188 44.503 5.188C45.687 5.188 46.751 5.468 47.695 6.028C48.639 6.588 49.383 7.348 49.927 8.308C50.471 9.268 50.743 10.332 50.743 11.5C50.743 12.668 50.471 13.74 49.927 14.716C49.383 15.676 48.639 16.436 47.695 16.996C46.751 17.556 45.687 17.836 44.503 17.836ZM44.503 15.172C45.463 15.172 46.263 14.828 46.903 14.14C47.543 13.436 47.863 12.556 47.863 11.5C47.863 10.444 47.543 9.572 46.903 8.884C46.263 8.196 45.463 7.852 44.503 7.852C43.527 7.852 42.727 8.196 42.103 8.884C41.479 9.572 41.167 10.444 41.167 11.5C41.167 12.572 41.479 13.452 42.103 14.14C42.727 14.828 43.527 15.172 44.503 15.172ZM52.3718 8.044H50.3078V5.524H52.3718V3.892C52.3718 2.788 52.6918 1.924 53.3318 1.3C53.9878 0.659999 54.7958 0.339999 55.7558 0.339999C56.5398 0.339999 57.1638 0.451999 57.6278 0.675999C58.1078 0.883999 58.4758 1.116 58.7318 1.372L57.4838 3.364C57.1638 3.092 56.7878 2.956 56.3558 2.956C55.6198 2.956 55.2518 3.38 55.2518 4.228V5.524H58.2998V8.044H55.2518V17.5H52.3718V8.044ZM69.3861 17.5H67.0101L66.6021 16.06C65.7061 17.244 64.4901 17.836 62.9541 17.836C60.0901 17.836 58.6581 16.14 58.6581 12.748V5.524H61.5381V12.364C61.5381 13.372 61.7381 14.092 62.1381 14.524C62.5541 14.94 63.1301 15.148 63.8661 15.148C64.6341 15.148 65.2661 14.884 65.7621 14.356C66.2581 13.812 66.5061 13.052 66.5061 12.076V5.524H69.3861V17.5ZM70.5953 5.524H72.9713L73.3793 6.964C74.2753 5.78 75.4913 5.188 77.0273 5.188C78.4193 5.188 79.4833 5.604 80.2193 6.436C80.9553 7.268 81.3233 8.54 81.3233 10.252V17.5H78.4433V10.636C78.4433 8.78 77.6673 7.852 76.1153 7.852C75.3473 7.852 74.7153 8.124 74.2193 8.668C73.7233 9.196 73.4753 9.948 73.4753 10.924V17.5H70.5953V5.524ZM87.8125 17.836C86.7245 17.836 85.7325 17.556 84.8365 16.996C83.9565 16.42 83.2605 15.652 82.7485 14.692C82.2525 13.716 82.0045 12.652 82.0045 11.5C82.0045 10.332 82.2525 9.268 82.7485 8.308C83.2445 7.348 83.9325 6.588 84.8125 6.028C85.6925 5.468 86.6845 5.188 87.7885 5.188C88.6365 5.188 89.3725 5.348 89.9965 5.668C90.6365 5.988 91.1405 6.388 91.5085 6.868V0.699999H94.3885V17.5H92.0125L91.6285 16.036C91.2605 16.532 90.7565 16.956 90.1165 17.308C89.4765 17.66 88.7085 17.836 87.8125 17.836ZM88.2205 15.244C89.1805 15.244 89.9725 14.892 90.5965 14.188C91.2205 13.484 91.5325 12.588 91.5325 11.5C91.5325 10.412 91.2205 9.524 90.5965 8.836C89.9725 8.132 89.1805 7.78 88.2205 7.78C87.5965 7.78 87.0285 7.94 86.5165 8.26C86.0045 8.58 85.6045 9.028 85.3165 9.604C85.0285 10.164 84.8845 10.796 84.8845 11.5C84.8845 12.22 85.0285 12.868 85.3165 13.444C85.6045 14.004 86.0045 14.444 86.5165 14.764C87.0285 15.084 87.5965 15.244 88.2205 15.244ZM95.6907 5.524H98.5707V17.5H95.6907V5.524ZM97.0827 3.892C96.6187 3.892 96.2187 3.724 95.8827 3.388C95.5627 3.052 95.4027 2.652 95.4027 2.188C95.4027 1.724 95.5627 1.324 95.8827 0.987999C96.2187 0.651999 96.6187 0.483999 97.0827 0.483999C97.5467 0.483999 97.9467 0.651999 98.2827 0.987999C98.6347 1.324 98.8107 1.724 98.8107 2.188C98.8107 2.652 98.6347 3.052 98.2827 3.388C97.9467 3.724 97.5467 3.892 97.0827 3.892ZM99.8678 5.524H102.244L102.652 6.964C103.548 5.78 104.764 5.188 106.3 5.188C107.692 5.188 108.756 5.604 109.492 6.436C110.228 7.268 110.596 8.54 110.596 10.252V17.5H107.716V10.636C107.716 8.78 106.94 7.852 105.388 7.852C104.62 7.852 103.988 8.124 103.492 8.668C102.996 9.196 102.748 9.948 102.748 10.924V17.5H99.8678V5.524ZM117.349 22.636C115.813 22.636 114.581 22.284 113.653 21.58C112.741 20.876 112.125 19.932 111.805 18.748L114.493 18.148C114.637 18.788 114.941 19.284 115.405 19.636C115.885 20.004 116.533 20.188 117.349 20.188C118.373 20.188 119.165 19.916 119.725 19.372C120.301 18.844 120.589 18.084 120.589 17.092V15.628C120.301 16.124 119.837 16.548 119.197 16.9C118.573 17.236 117.837 17.404 116.989 17.404C115.885 17.404 114.901 17.14 114.037 16.612C113.173 16.084 112.493 15.356 111.997 14.428C111.517 13.5 111.277 12.46 111.277 11.308C111.277 10.172 111.517 9.14 111.997 8.212C112.493 7.268 113.173 6.532 114.037 6.004C114.917 5.46 115.893 5.188 116.965 5.188C117.845 5.188 118.589 5.364 119.197 5.716C119.821 6.068 120.285 6.484 120.589 6.964L121.117 5.524H123.469V17.044C123.469 18.74 122.925 20.092 121.837 21.1C120.765 22.124 119.269 22.636 117.349 22.636ZM117.397 14.812C118.325 14.812 119.085 14.492 119.677 13.852C120.285 13.212 120.589 12.364 120.589 11.308C120.589 10.236 120.285 9.38 119.677 8.74C119.085 8.1 118.317 7.78 117.373 7.78C116.429 7.78 115.653 8.1 115.045 8.74C114.453 9.38 114.157 10.236 114.157 11.308C114.157 12.364 114.461 13.212 115.069 13.852C115.677 14.492 116.453 14.812 117.397 14.812Z" />
</svg>