<svg width="162" height="32" viewBox="0 0 162 32" fill="black" xmlns="http://www.w3.org/2000/svg">
  <path
    d="M25.8686 17.7777C25.8686 19.551 25.4677 21.2305 24.7513 22.7321L23.1925 21.761L22.4622 21.306C22.9321 20.2244 23.1925 19.031 23.1925 17.7777C23.1925 16.5244 22.9321 15.331 22.4622 14.2494L23.1925 13.7944L24.7513 12.8232C25.4677 14.3249 25.8686 16.0044 25.8686 17.7777Z"
    fill="#146C76" />
  <path
    d="M23.1926 21.7611L22.4622 21.3061L19.6607 19.5617C19.4974 19.46 19.4177 19.2644 19.4645 19.0783C19.5687 18.6622 19.6245 18.2267 19.6245 17.7783C19.6245 17.33 19.5693 16.8944 19.4645 16.4783C19.4177 16.2917 19.4974 16.0967 19.6607 15.995L22.4622 14.2506L24.7514 12.8244L26.323 11.8456C26.7294 11.5922 26.8649 11.0628 26.6241 10.6494C26.5438 10.5111 26.4607 10.375 26.376 10.24C26.1385 9.86222 25.8837 9.49611 25.6127 9.14333C23.0465 5.80167 19.0257 3.62722 14.4932 3.55833C14.3705 3.55667 14.2718 3.45833 14.2718 3.33611V1.33333C14.2718 0.597222 13.6725 0 12.9338 0C12.1951 0 11.5958 0.597222 11.5958 1.33333V3.62389C11.5958 3.73 11.5205 3.82056 11.4162 3.84167C10.6614 3.99444 9.92769 4.20667 9.22132 4.47333C9.07581 4.52833 8.91971 4.42111 8.91971 4.26556V1.33333C8.91971 0.597222 8.32039 0 7.58168 0C6.84298 0 6.24365 0.597222 6.24365 1.33333V5.78556C6.24365 5.93111 6.17118 6.06667 6.05187 6.15056C2.40351 8.71667 0.0162465 12.945 7.86174e-05 17.7294C-0.0261244 25.5783 6.50123 32 14.3778 32H24.9766C25.4695 32 25.8686 31.6022 25.8686 31.1111V24.0439C25.8686 23.6606 25.6707 23.3044 25.3446 23.1017L24.7514 22.7322L23.1926 21.7611ZM22.7466 29.3333H14.3755C7.9909 29.3333 2.67056 24.1283 2.67669 17.7667C2.67948 14.59 3.96901 11.7139 6.05354 9.62667C6.12379 9.55611 6.24477 9.60556 6.24477 9.705V11.1111C6.24477 11.8472 6.84409 12.4444 7.5828 12.4444C8.3215 12.4444 8.92083 11.8472 8.92083 11.1111V7.79833C8.92083 7.62889 9.01783 7.47333 9.17059 7.39889C10.7104 6.64556 12.4421 6.22222 14.2729 6.22222C17.7507 6.22222 20.8711 7.74778 22.9963 10.1639C23.1775 10.37 23.1301 10.6889 22.8971 10.8344L21.0428 11.9894L18.5095 13.5672C18.1956 13.7628 17.7936 13.7439 17.4981 13.5217C16.5944 12.84 15.4666 12.4383 14.2439 12.445C11.3443 12.4606 8.96375 14.8094 8.92138 17.6989C8.8779 20.6806 11.2908 23.1117 14.2729 23.1117C15.4866 23.1117 16.6056 22.7094 17.5032 22.0306C17.7964 21.8089 18.1973 21.7944 18.5095 21.9889L21.0428 23.5667L22.9311 24.7428C23.0939 24.8444 23.1931 25.0222 23.1931 25.2139V28.8894C23.1931 29.135 22.9935 29.3339 22.7471 29.3339L22.7466 29.3333ZM16.9468 17.6844V17.8711C16.93 18.355 16.784 18.8061 16.542 19.1911C16.2939 19.5867 15.9438 19.9128 15.529 20.1328C15.1544 20.3317 14.7268 20.4444 14.2724 20.4444C12.7944 20.4444 11.5963 19.2506 11.5963 17.7778C11.5963 16.305 12.7944 15.1111 14.2724 15.1111C14.7268 15.1111 15.1544 15.2239 15.529 15.4228C15.9438 15.6428 16.2939 15.9689 16.542 16.3644C16.784 16.7494 16.93 17.2006 16.9468 17.6844Z" />
  <path
    d="M36.4954 7.7H42.6394C43.7754 7.7 44.7594 7.916 45.5914 8.348C46.4234 8.78 47.0474 9.38 47.4634 10.148C47.8954 10.9 48.1114 11.748 48.1114 12.692C48.1114 13.956 47.7994 14.996 47.1754 15.812C46.5674 16.628 45.7834 17.196 44.8234 17.516L48.8314 24.5H45.5914L41.9194 17.924H39.4234V24.5H36.4954V7.7ZM42.4474 15.356C43.3114 15.356 43.9834 15.132 44.4634 14.684C44.9594 14.22 45.2074 13.604 45.2074 12.836C45.2074 12.052 44.9594 11.444 44.4634 11.012C43.9674 10.564 43.2794 10.34 42.3994 10.34H39.4234V15.356H42.4474ZM50.7042 19.46C50.7522 19.972 50.9202 20.46 51.2082 20.924C51.4962 21.388 51.8802 21.764 52.3602 22.052C52.8562 22.324 53.4082 22.46 54.0162 22.46C54.7842 22.46 55.4162 22.276 55.9122 21.908C56.4242 21.54 56.7682 21.116 56.9442 20.636L59.3682 21.38C59.0002 22.404 58.3602 23.236 57.4482 23.876C56.5522 24.516 55.4082 24.836 54.0162 24.836C52.8802 24.836 51.8482 24.564 50.9202 24.02C50.0082 23.476 49.2802 22.724 48.7362 21.764C48.2082 20.804 47.9442 19.716 47.9442 18.5C47.9442 17.316 48.2082 16.244 48.7362 15.284C49.2802 14.324 50.0082 13.572 50.9202 13.028C51.8482 12.468 52.8722 12.188 53.9922 12.188C55.1282 12.188 56.1202 12.452 56.9682 12.98C57.8322 13.492 58.4962 14.212 58.9602 15.14C59.4242 16.068 59.6562 17.14 59.6562 18.356V19.46H50.7042ZM57.1122 17.252C57.0802 16.852 56.9442 16.444 56.7042 16.028C56.4642 15.612 56.1122 15.268 55.6482 14.996C55.2002 14.708 54.6562 14.564 54.0162 14.564C53.1042 14.564 52.3602 14.828 51.7842 15.356C51.2242 15.868 50.8722 16.5 50.7282 17.252H57.1122ZM64.5927 24.836C63.6167 24.836 62.8087 24.532 62.1687 23.924C61.5287 23.3 61.2087 22.42 61.2087 21.284V15.044H59.1447V12.524H61.2087V9.404H64.0887V12.524H67.1367V15.044H64.0887V20.876C64.0887 21.724 64.4647 22.148 65.2167 22.148C65.6487 22.148 66.0167 22.012 66.3207 21.74L67.5207 23.78C67.2967 24.052 66.9367 24.292 66.4407 24.5C65.9447 24.724 65.3287 24.836 64.5927 24.836ZM67.659 12.524H70.035L70.443 13.916C70.731 13.42 71.131 13.012 71.643 12.692C72.155 12.356 72.763 12.188 73.467 12.188C73.915 12.188 74.315 12.244 74.667 12.356C75.019 12.468 75.307 12.604 75.531 12.764L74.499 15.284C74.355 15.172 74.155 15.076 73.899 14.996C73.659 14.916 73.379 14.876 73.059 14.876C72.339 14.876 71.739 15.156 71.259 15.716C70.779 16.26 70.539 17.012 70.539 17.972V24.5H67.659V12.524ZM80.503 24.836C79.319 24.836 78.255 24.556 77.311 23.996C76.367 23.436 75.623 22.676 75.079 21.716C74.551 20.74 74.287 19.668 74.287 18.5C74.287 17.332 74.551 16.268 75.079 15.308C75.623 14.348 76.367 13.588 77.311 13.028C78.271 12.468 79.335 12.188 80.503 12.188C81.687 12.188 82.751 12.468 83.695 13.028C84.639 13.588 85.383 14.348 85.927 15.308C86.471 16.268 86.743 17.332 86.743 18.5C86.743 19.668 86.471 20.74 85.927 21.716C85.383 22.676 84.639 23.436 83.695 23.996C82.751 24.556 81.687 24.836 80.503 24.836ZM80.503 22.172C81.463 22.172 82.263 21.828 82.903 21.14C83.543 20.436 83.863 19.556 83.863 18.5C83.863 17.444 83.543 16.572 82.903 15.884C82.263 15.196 81.463 14.852 80.503 14.852C79.527 14.852 78.727 15.196 78.103 15.884C77.479 16.572 77.167 17.444 77.167 18.5C77.167 19.572 77.479 20.452 78.103 21.14C78.727 21.828 79.527 22.172 80.503 22.172ZM88.3718 15.044H86.3078V12.524H88.3718V10.892C88.3718 9.788 88.6918 8.924 89.3318 8.3C89.9878 7.66 90.7958 7.34 91.7558 7.34C92.5398 7.34 93.1638 7.452 93.6278 7.676C94.1078 7.884 94.4758 8.116 94.7318 8.372L93.4838 10.364C93.1638 10.092 92.7878 9.956 92.3558 9.956C91.6198 9.956 91.2518 10.38 91.2518 11.228V12.524H94.2998V15.044H91.2518V24.5H88.3718V15.044ZM105.386 24.5H103.01L102.602 23.06C101.706 24.244 100.49 24.836 98.9541 24.836C96.0901 24.836 94.6581 23.14 94.6581 19.748V12.524H97.5381V19.364C97.5381 20.372 97.7381 21.092 98.1381 21.524C98.5541 21.94 99.1301 22.148 99.8661 22.148C100.634 22.148 101.266 21.884 101.762 21.356C102.258 20.812 102.506 20.052 102.506 19.076V12.524H105.386V24.5ZM106.595 12.524H108.971L109.379 13.964C110.275 12.78 111.491 12.188 113.027 12.188C114.419 12.188 115.483 12.604 116.219 13.436C116.955 14.268 117.323 15.54 117.323 17.252V24.5H114.443V17.636C114.443 15.78 113.667 14.852 112.115 14.852C111.347 14.852 110.715 15.124 110.219 15.668C109.723 16.196 109.475 16.948 109.475 17.924V24.5H106.595V12.524ZM123.812 24.836C122.724 24.836 121.732 24.556 120.836 23.996C119.956 23.42 119.26 22.652 118.748 21.692C118.252 20.716 118.004 19.652 118.004 18.5C118.004 17.332 118.252 16.268 118.748 15.308C119.244 14.348 119.932 13.588 120.812 13.028C121.692 12.468 122.684 12.188 123.788 12.188C124.636 12.188 125.372 12.348 125.996 12.668C126.636 12.988 127.14 13.388 127.508 13.868V7.7H130.388V24.5H128.012L127.628 23.036C127.26 23.532 126.756 23.956 126.116 24.308C125.476 24.66 124.708 24.836 123.812 24.836ZM124.22 22.244C125.18 22.244 125.972 21.892 126.596 21.188C127.22 20.484 127.532 19.588 127.532 18.5C127.532 17.412 127.22 16.524 126.596 15.836C125.972 15.132 125.18 14.78 124.22 14.78C123.596 14.78 123.028 14.94 122.516 15.26C122.004 15.58 121.604 16.028 121.316 16.604C121.028 17.164 120.884 17.796 120.884 18.5C120.884 19.22 121.028 19.868 121.316 20.444C121.604 21.004 122.004 21.444 122.516 21.764C123.028 22.084 123.596 22.244 124.22 22.244ZM131.691 12.524H134.571V24.5H131.691V12.524ZM133.083 10.892C132.619 10.892 132.219 10.724 131.883 10.388C131.563 10.052 131.403 9.652 131.403 9.188C131.403 8.724 131.563 8.324 131.883 7.988C132.219 7.652 132.619 7.484 133.083 7.484C133.547 7.484 133.947 7.652 134.283 7.988C134.635 8.324 134.811 8.724 134.811 9.188C134.811 9.652 134.635 10.052 134.283 10.388C133.947 10.724 133.547 10.892 133.083 10.892ZM135.868 12.524H138.244L138.652 13.964C139.548 12.78 140.764 12.188 142.3 12.188C143.692 12.188 144.756 12.604 145.492 13.436C146.228 14.268 146.596 15.54 146.596 17.252V24.5H143.716V17.636C143.716 15.78 142.94 14.852 141.388 14.852C140.62 14.852 139.988 15.124 139.492 15.668C138.996 16.196 138.748 16.948 138.748 17.924V24.5H135.868V12.524ZM153.349 29.636C151.813 29.636 150.581 29.284 149.653 28.58C148.741 27.876 148.125 26.932 147.805 25.748L150.493 25.148C150.637 25.788 150.941 26.284 151.405 26.636C151.885 27.004 152.533 27.188 153.349 27.188C154.373 27.188 155.165 26.916 155.725 26.372C156.301 25.844 156.589 25.084 156.589 24.092V22.628C156.301 23.124 155.837 23.548 155.197 23.9C154.573 24.236 153.837 24.404 152.989 24.404C151.885 24.404 150.901 24.14 150.037 23.612C149.173 23.084 148.493 22.356 147.997 21.428C147.517 20.5 147.277 19.46 147.277 18.308C147.277 17.172 147.517 16.14 147.997 15.212C148.493 14.268 149.173 13.532 150.037 13.004C150.917 12.46 151.893 12.188 152.965 12.188C153.845 12.188 154.589 12.364 155.197 12.716C155.821 13.068 156.285 13.484 156.589 13.964L157.117 12.524H159.469V24.044C159.469 25.74 158.925 27.092 157.837 28.1C156.765 29.124 155.269 29.636 153.349 29.636ZM153.397 21.812C154.325 21.812 155.085 21.492 155.677 20.852C156.285 20.212 156.589 19.364 156.589 18.308C156.589 17.236 156.285 16.38 155.677 15.74C155.085 15.1 154.317 14.78 153.373 14.78C152.429 14.78 151.653 15.1 151.045 15.74C150.453 16.38 150.157 17.236 150.157 18.308C150.157 19.364 150.461 20.212 151.069 20.852C151.677 21.492 152.453 21.812 153.397 21.812Z" />
</svg>