<svg width="45" height="18" viewBox="0 0 45 18" fill="black" xmlns="http://www.w3.org/2000/svg">
  <path
    d="M15.7992 0.699999L9.58316 17.5H6.39116L0.175164 0.699999H3.31916L7.99916 13.66L12.6552 0.699999H15.7992ZM19.7927 17.836C18.6087 17.836 17.5447 17.556 16.6007 16.996C15.6567 16.436 14.9127 15.676 14.3687 14.716C13.8407 13.74 13.5767 12.668 13.5767 11.5C13.5767 10.332 13.8407 9.268 14.3687 8.308C14.9127 7.348 15.6567 6.588 16.6007 6.028C17.5607 5.468 18.6247 5.188 19.7927 5.188C20.9767 5.188 22.0407 5.468 22.9847 6.028C23.9287 6.588 24.6727 7.348 25.2167 8.308C25.7607 9.268 26.0327 10.332 26.0327 11.5C26.0327 12.668 25.7607 13.74 25.2167 14.716C24.6727 15.676 23.9287 16.436 22.9847 16.996C22.0407 17.556 20.9767 17.836 19.7927 17.836ZM19.7927 15.172C20.7527 15.172 21.5527 14.828 22.1927 14.14C22.8327 13.436 23.1527 12.556 23.1527 11.5C23.1527 10.444 22.8327 9.572 22.1927 8.884C21.5527 8.196 20.7527 7.852 19.7927 7.852C18.8167 7.852 18.0167 8.196 17.3927 8.884C16.7687 9.572 16.4567 10.444 16.4567 11.5C16.4567 12.572 16.7687 13.452 17.3927 14.14C18.0167 14.828 18.8167 15.172 19.7927 15.172ZM30.9518 17.836C29.9758 17.836 29.1678 17.532 28.5278 16.924C27.8878 16.3 27.5678 15.42 27.5678 14.284V8.044H25.5038V5.524H27.5678V2.404H30.4478V5.524H33.4958V8.044H30.4478V13.876C30.4478 14.724 30.8238 15.148 31.5758 15.148C32.0078 15.148 32.3758 15.012 32.6798 14.74L33.8798 16.78C33.6558 17.052 33.2958 17.292 32.7998 17.5C32.3038 17.724 31.6878 17.836 30.9518 17.836ZM35.6642 12.46C35.7122 12.972 35.8802 13.46 36.1682 13.924C36.4562 14.388 36.8402 14.764 37.3202 15.052C37.8162 15.324 38.3682 15.46 38.9762 15.46C39.7442 15.46 40.3762 15.276 40.8722 14.908C41.3842 14.54 41.7282 14.116 41.9042 13.636L44.3282 14.38C43.9602 15.404 43.3202 16.236 42.4082 16.876C41.5122 17.516 40.3682 17.836 38.9762 17.836C37.8402 17.836 36.8082 17.564 35.8802 17.02C34.9682 16.476 34.2402 15.724 33.6962 14.764C33.1682 13.804 32.9042 12.716 32.9042 11.5C32.9042 10.316 33.1682 9.244 33.6962 8.284C34.2402 7.324 34.9682 6.572 35.8802 6.028C36.8082 5.468 37.8322 5.188 38.9522 5.188C40.0882 5.188 41.0802 5.452 41.9282 5.98C42.7922 6.492 43.4562 7.212 43.9202 8.14C44.3842 9.068 44.6162 10.14 44.6162 11.356V12.46H35.6642ZM42.0722 10.252C42.0402 9.852 41.9042 9.444 41.6642 9.028C41.4242 8.612 41.0722 8.268 40.6082 7.996C40.1602 7.708 39.6162 7.564 38.9762 7.564C38.0642 7.564 37.3202 7.828 36.7442 8.356C36.1842 8.868 35.8322 9.5 35.6882 10.252H42.0722Z" />
</svg>